<svg width="21" height="22" viewBox="0 0 21 22" fill="none" xmlns="http://www.w3.org/2000/svg">
<path d="M20.3753 11.2286C20.3753 10.4965 20.3094 9.79588 20.1869 9.1222H10.7103V12.9818L16.1681 12.983C15.9467 14.2672 15.2343 15.362 14.1428 16.0918V18.5959H17.3915C19.2885 16.852 20.3753 14.2742 20.3753 11.2286Z" fill="#4285F4"/>
<path d="M14.1439 16.0918C13.2396 16.6977 12.075 17.0521 10.7126 17.0521C8.0809 17.0521 5.84834 15.2907 5.04882 12.9164H1.69763V15.4988C3.35792 18.7714 6.77033 21.017 10.7126 21.017C13.4374 21.017 15.7265 20.1269 17.3926 18.5947L14.1439 16.0918Z" fill="#34A853"/>
<path d="M4.7332 11.0006C4.7332 10.334 4.84506 9.68951 5.04877 9.08366V6.50121H1.69759C1.0111 7.85442 0.624878 9.3819 0.624878 11.0006C0.624878 12.6193 1.01228 14.1468 1.69759 15.5L5.04877 12.9176C4.84506 12.3117 4.7332 11.6673 4.7332 11.0006Z" fill="#FABB05"/>
<path d="M10.7126 4.94799C12.1998 4.94799 13.5316 5.45676 14.5831 6.45091L17.4621 3.5936C15.7135 1.97606 13.4338 0.983078 10.7126 0.983078C6.77151 0.983078 3.35792 3.22869 1.69763 6.5012L5.04882 9.08366C5.84834 6.70939 8.0809 4.94799 10.7126 4.94799Z" fill="#E94235"/>
</svg>
