<svg width="257" height="256" viewBox="0 0 257 256" fill="none" xmlns="http://www.w3.org/2000/svg">
<g clip-path="url(#clip0_1_10120)">
<path d="M113.75 138.574C103.2 137.324 92.525 134.199 83.625 129.749C76.6 126.249 72.4 123.099 71.15 120.349C70.35 118.624 70.075 116.324 70.375 113.949C70.65 111.624 71.2 110.474 72.675 109.049C74.025 107.724 75.225 107.224 77.025 107.224H78.45L78.3 108.874C78.2 110.324 78.25 110.674 78.925 111.974C80.1 114.349 83.075 116.599 88.5 119.224C98.8 124.199 112.25 127.774 123 128.374C127.9 128.649 131.3 127.849 133.45 125.974C134.05 125.424 134.7 124.649 134.875 124.224C135.35 123.099 136.475 123.174 137.675 124.424C138.175 124.924 138.7 125.624 138.825 125.974C139.625 128.124 139.325 131.849 138.15 134.199C136.875 136.674 134.875 137.924 131.025 138.599C128.175 139.074 118.025 139.074 113.75 138.574Z" fill="white"/>
<path d="M210.2 138.049C210.025 137.999 209.875 137.574 209.875 137.099C209.875 136.424 210 136.224 210.625 135.974C211.75 135.499 212.85 134.074 214.175 131.424C216.25 127.199 217.25 123.024 217.1 119.299C217 117.574 216.9 117.124 216.175 115.999C215.75 115.274 215.375 114.349 215.375 113.949C215.375 113.249 215.425 113.224 216.45 113.224C217.825 113.224 220.425 114.474 221.125 115.499C221.875 116.524 222.2 119.099 222.05 122.599C221.9 126.399 221.225 129.099 219.625 132.349C217.2 137.274 216.05 138.224 212.5 138.199C211.4 138.199 210.35 138.124 210.2 138.049Z" fill="white"/>
<path d="M133.25 85.5494C122.9 84.7244 110.9 81.8744 102.025 78.1744C96.525 75.8744 89.925 72.3494 87.775 70.5494C86.375 69.3994 85.2 67.5744 84.75 65.8744C84.225 63.9244 84.325 60.1494 84.95 58.6744C85.3 57.8494 85.45 57.7244 86.175 57.7244C86.875 57.7494 87.1 57.8994 87.675 58.8494C89.75 62.2744 99.7 66.9494 113.675 71.0744C122.625 73.6994 133.3 75.9994 140.05 76.7244C144.275 77.1994 148.1 76.9744 150.15 76.1494C151.05 75.7744 152.15 75.4744 152.625 75.4744H153.45L153.325 77.2994C153.05 81.5994 150.525 84.4494 146.2 85.3494C144.625 85.6994 136.425 85.8244 133.25 85.5494Z" fill="white"/>
<path d="M141 73.8244C140.325 73.7744 138.125 73.4994 136.125 73.1994C118.825 70.7494 95.65 63.2244 90.575 58.4494C89.625 57.5494 89.6 57.4744 89.675 56.0744C89.775 53.8994 89.975 53.8494 96.375 53.8744C101.675 53.8744 103.975 54.1244 110.25 55.3494C125.45 58.2994 142.425 63.9994 148.675 68.2494C150.55 69.5244 150.875 70.0494 150.875 71.6744C150.875 72.9744 150.85 72.9994 149.95 73.3994C149 73.7994 143.9 74.0494 141 73.8244Z" fill="white"/>
<path d="M200.875 131.974C197.5 131.049 187.225 128.249 178 125.724C168.8 123.224 158.45 120.424 155 119.474C148.75 117.749 141.2 115.699 133.25 113.549C130.825 112.899 128.85 112.249 128.65 111.999C128.4 111.699 128.35 110.974 128.475 108.849C128.725 104.424 129.75 100.524 131.575 97.0994L132.5 95.3494L133.875 95.2744C134.85 95.2244 136.15 95.4494 138.5 96.0994C140.275 96.5744 147.775 98.6244 155.125 100.624C162.475 102.624 171.55 105.074 175.25 106.099C178.975 107.099 185.6 108.899 190 110.099C194.4 111.299 201.225 113.149 205.175 114.249C209.125 115.324 212.5 116.224 212.7 116.224C212.875 116.224 213.3 116.499 213.625 116.849C214.175 117.449 214.2 117.549 214.05 120.774C213.875 124.874 213.3 127.249 211.65 130.624C210.275 133.374 209.85 133.749 208.05 133.699C207.475 133.699 204.25 132.924 200.875 131.974Z" fill="#68C860"/>
<path d="M121 125.324C113.125 124.674 101.925 121.974 94.375 118.924C88.7 116.624 83.975 114.024 82.2 112.249C80.775 110.824 80.85 110.424 85.7 92.3494L90 76.3494L90.925 76.2744C91.65 76.2244 92.4 76.4994 94.425 77.5744C103.55 82.4244 117.45 86.6244 129.125 88.0744C131.975 88.4244 138.675 88.9494 140.475 88.9744C141.2 88.9744 141.2 88.9744 141.05 90.1744C140.95 90.8244 140.775 91.7744 140.625 92.2994C140.375 93.1244 140.275 93.2244 139.5 93.2244C139.05 93.2244 137.625 92.9494 136.35 92.5994C133.575 91.8744 132.725 91.9994 131.025 93.4994C128.55 95.6994 125.925 102.899 125.475 108.799C125.325 110.799 125.35 111.049 126 112.349C126.9 114.224 127.975 114.949 131.1 115.824L133.625 116.524V117.449C133.625 118.524 132.275 123.624 131.85 124.124C131.3 124.799 129.05 125.224 125.625 125.324C123.775 125.374 121.7 125.374 121 125.324Z" fill="#68C860"/>
<path d="M85 203.049C68.325 202.599 54.025 199.624 45.375 194.824C39.525 191.599 36 187.474 35.15 182.849C34.8 180.974 34.8 177.849 35.15 176.224C35.4 174.999 35.425 174.974 36.325 174.974C37.2 174.974 37.275 175.024 37.675 176.174C39.25 180.574 44.675 185.074 51.925 187.949C60.075 191.174 70.45 193.174 83.25 193.974C104.225 195.274 130.175 191.574 147.375 184.799C158.35 180.474 165.3 175.674 168.7 170.049C169.6 168.549 170.625 165.874 170.625 164.974C170.625 164.574 170.775 164.474 171.475 164.474C172.3 164.474 172.375 164.549 172.875 165.899C174.175 169.399 174.075 174.024 172.625 177.149C169.925 182.974 163.425 188.224 153.825 192.324C142.325 197.224 126.45 200.774 109.575 202.249C104.55 202.674 90.025 203.299 88 203.174C87.6 203.149 86.25 203.099 85 203.049Z" fill="#C7577C"/>
<path d="M83.75 190.974C63.075 189.949 48.05 185.474 42.125 178.599C40.5 176.724 40.075 175.524 39.925 172.524C39.8 169.474 40.1 168.449 41.8 166.049C42.825 164.599 42.975 164.474 43.85 164.474H44.8L44.95 165.924C45.25 168.749 46.975 171.849 49.6 174.299C51.65 176.174 52.825 176.949 56.025 178.574C63.275 182.199 72.775 184.324 85.875 185.224C97.8 186.049 114.825 184.499 127.15 181.474C143.175 177.524 154.65 171.499 159.225 164.624C160.825 162.224 161.45 160.399 161.575 157.774L161.675 155.474H162.625C163.425 155.474 163.725 155.674 164.975 156.974C167.125 159.224 167.5 160.249 167.5 163.724C167.5 166.499 167.475 166.674 166.65 168.349C164.875 171.999 159.525 176.399 153.25 179.374C140.6 185.399 124 189.249 104.625 190.699C99.575 191.074 88.85 191.224 83.75 190.974Z" fill="#C7577C"/>
<path d="M87.75 182.224C71.35 181.574 59.075 178.499 52.375 173.349C49.25 170.949 48.1 168.824 47.925 165.299L47.825 162.974H48.725C49.45 162.974 49.675 163.099 49.975 163.674C50.975 165.599 53.825 168.049 56.875 169.599C64.775 173.599 81.325 175.899 97.025 175.224C126.625 173.924 151.25 166.074 155.775 156.524C156.475 155.074 156.55 154.999 157.4 154.999C158.225 154.974 158.325 155.049 158.475 155.749C158.975 158.249 158.4 161.199 157 163.349C149.55 174.899 118.25 183.424 87.75 182.224Z" fill="#C7577C"/>
<path d="M80.375 171.924C65.475 170.899 54.65 167.299 52.4 162.649C51.7 161.199 51.7 158.524 52.375 157.049C54.45 152.474 63.45 147.924 77 144.599C85 142.624 96.025 141.074 103.875 140.799C107.6 140.674 108.725 140.724 111.5 141.174C118.175 142.249 125.6 142.449 130.3 141.674C132.25 141.349 134.75 141.649 139.375 142.749C144 143.874 144.125 143.924 144.125 144.799V145.599H133.45C122.65 145.599 120.15 145.724 111.1 146.724C107.1 147.174 101.225 148.074 98.375 148.674C93.3 149.749 90.95 150.299 90.575 150.499C90.35 150.624 89.75 150.724 89.275 150.724C88.775 150.724 88.375 150.824 88.375 150.949C88.375 151.049 87.675 151.399 86.825 151.699C85.95 151.999 85.05 152.349 84.825 152.474C84.575 152.624 84.15 152.724 83.9 152.724C83.15 152.724 82.125 153.249 82.125 153.649C82.125 153.824 82.025 153.974 81.875 153.974C81.45 153.974 79.875 155.524 79.875 155.949C79.875 156.574 80.525 157.099 82.375 157.949C85.9 159.524 92.6 160.424 102.5 160.649C118.35 160.974 136.675 158.824 148.8 155.224C150.2 154.824 151.75 154.474 152.25 154.474C153.1 154.474 153.125 154.499 153.125 155.474C153.125 156.349 152.95 156.649 151.7 157.924C149.8 159.824 147.675 161.249 144.275 162.849C134.15 167.624 118.075 170.999 100.875 171.974C95.725 172.249 84.8 172.249 80.375 171.924Z" fill="#C7577C"/>
<path d="M95.6 161.224C89.5 160.824 84.175 159.849 81.475 158.599C79.575 157.724 78.875 157.024 78.875 155.924C78.875 155.174 80.1 153.599 80.9 153.349C81.15 153.249 81.375 153.049 81.375 152.874C81.375 152.474 83.225 151.599 83.6 151.849C83.75 151.924 83.95 151.824 84.025 151.624C84.1 151.399 84.425 151.249 84.7 151.249C85.4 151.299 87.425 150.549 87.65 150.174C87.75 150.024 88.3 149.874 88.875 149.849C89.45 149.824 90.025 149.649 90.125 149.474C90.225 149.299 90.5 149.224 90.725 149.299C90.95 149.399 91.125 149.324 91.125 149.199C91.125 149.049 91.35 148.974 91.625 149.049C91.9 149.124 92.125 149.074 92.125 148.924C92.125 148.774 92.375 148.724 92.65 148.799C93.25 148.974 96.625 148.274 96.625 147.999C96.625 147.899 97.15 147.799 97.8 147.799C98.475 147.799 99.025 147.674 99.075 147.499C99.15 147.299 99.45 147.274 100.025 147.374C100.625 147.474 100.875 147.424 100.875 147.224C100.875 147.024 101.1 146.974 101.5 147.074C101.875 147.174 102.125 147.124 102.125 146.949C102.125 146.774 102.4 146.749 102.875 146.849C103.35 146.949 103.625 146.924 103.625 146.724C103.625 146.549 103.925 146.499 104.5 146.624C105.1 146.724 105.375 146.674 105.375 146.499C105.375 146.299 105.65 146.249 106.25 146.374C106.825 146.474 107.125 146.424 107.125 146.249C107.125 146.049 107.45 146.024 108.125 146.124C108.775 146.224 109.125 146.199 109.125 145.999C109.125 145.824 109.5 145.774 110.25 145.899C111 145.999 111.375 145.949 111.375 145.774C111.375 145.599 111.8 145.549 112.625 145.649C113.475 145.749 113.875 145.699 113.875 145.499C113.875 145.299 114.3 145.274 115.25 145.374C116.175 145.499 116.625 145.449 116.625 145.274C116.625 145.074 117.15 145.049 118.25 145.149C119.3 145.249 119.875 145.199 119.875 145.049C119.875 144.874 120.625 144.824 122 144.924C123.175 144.974 124.125 144.949 124.125 144.824C124.125 144.574 140.275 144.599 140.925 144.849C141.15 144.949 141.8 144.974 142.4 144.924L143.5 144.849L142.625 144.574L141.75 144.299L142.675 144.099C143.975 143.849 144.9 144.099 147.775 145.474C150.6 146.849 152.575 148.474 153.35 150.049C154.2 151.824 153.95 155.974 153 155.974C152.825 155.974 152.45 156.049 152.2 156.149C151.8 156.299 151.8 156.274 152.1 155.899C152.3 155.649 152.4 155.399 152.325 155.324C152.25 155.249 151.025 155.549 149.6 155.974C140.85 158.574 129.1 160.374 115.625 161.224C111.05 161.499 100.075 161.499 95.6 161.224Z" fill="#9E3851"/>
<path d="M140 143.849C139.325 143.649 138.675 143.499 138.575 143.474C138.45 143.474 138.375 143.299 138.375 143.099C138.375 142.849 138.625 142.724 139.075 142.724C140.05 142.724 140.875 142.999 140.875 143.299C140.875 143.424 141.075 143.699 141.325 143.874C141.85 144.299 141.575 144.274 140 143.849Z" fill="#9E3851"/>
<path d="M83 206.699C62.525 205.799 46.825 201.374 38.2 194.049C35.225 191.549 32.45 187.174 31.6 183.724C31.4 182.974 31.25 181.124 31.25 179.599C31.275 175.274 32.425 171.949 35.4 167.724C37.05 165.374 40.925 161.549 43.625 159.599C44.775 158.774 47.275 156.524 49.225 154.574C53.125 150.699 54.825 149.399 58.65 147.374C66.275 143.349 80.175 139.549 92.725 138.074L94.2 137.899L92.6 137.324C83.075 133.799 74.1 128.924 70.7 125.424C67.95 122.599 66.625 119.424 66.625 115.624C66.625 111.799 67.675 109.149 70.1 106.724C71.825 104.974 73.675 104.049 76.4 103.574C77.55 103.349 78.65 103.099 78.85 102.999C79.075 102.899 79.8 100.624 80.65 97.4495C81.425 94.4995 83.15 88.1245 84.45 83.2495L86.825 74.4245L84.9 72.4995C81.275 68.8745 79.95 64.5245 81 59.5995C81.525 57.1495 82.475 55.3745 84.125 53.7245C88.125 49.7245 94.675 49.0245 107.625 51.2495C116.275 52.7245 124.325 54.7245 132.25 57.3495C144.175 61.2745 150.05 64.1995 154 68.1495C159.6 73.7495 157.325 84.3995 149.825 87.8495C148.825 88.2995 147.35 88.7995 146.575 88.9745L145.125 89.2495L144.775 90.5495C143.925 93.5245 143.9 93.7495 144.2 93.8495C144.5 93.9745 175 102.274 191.375 106.724C196.525 108.124 201.875 109.574 203.25 109.949C204.625 110.349 206.55 110.874 207.525 111.124L209.3 111.574L210.275 110.799C212.7 108.899 214.55 108.574 217.4 109.549C220.425 110.549 221.675 111.249 223.15 112.724C225.3 114.849 225.7 116.124 225.725 120.974C225.75 125.074 225.55 126.424 224.45 129.849C223.25 133.549 220.9 137.699 218.975 139.474C215.6 142.574 210.25 142.799 206.325 139.999C205.175 139.174 203.675 137.399 203.325 136.474C203.275 136.374 201.8 135.874 200 135.399C191.425 133.074 186.3 131.699 175 128.599C168.275 126.774 160.225 124.574 157.125 123.724C154.025 122.899 148.575 121.399 145 120.424C141.425 119.449 138.225 118.624 137.875 118.624C136.775 118.574 137.025 119.324 138.475 120.449C141.125 122.499 142.45 124.649 142.85 127.499C143.35 131.224 142.025 135.474 139.55 138.149L138.825 138.924L140.275 139.224C142.45 139.674 147.45 141.374 149.225 142.274C151.45 143.399 156.2 146.549 157.575 147.799C158.225 148.399 159.8 149.424 161.1 150.074C165.675 152.374 170.4 155.999 172.9 159.149C181.775 170.324 177.65 183.074 162.225 191.974C153.75 196.849 143.275 200.424 129.225 203.199C115.325 205.949 97.175 207.324 83 206.699ZM99.25 202.074C115.675 201.524 133.3 198.549 146.075 194.199C156 190.799 162.275 187.399 167.075 182.874C172.575 177.649 174.225 172.274 172.075 166.549L171.55 165.099L171.225 166.474C169.875 172.349 164.35 177.874 155.25 182.424C135.425 192.324 102.675 197.074 74.875 194.074C65.8 193.099 57.575 191.249 51.175 188.699C43.925 185.824 38.5 181.324 36.925 176.924C36.7 176.249 36.425 175.724 36.325 175.724C36.075 175.724 35.625 178.099 35.625 179.449C35.625 191.774 51.85 200.124 79.375 201.974C86.3 202.424 88.65 202.449 99.25 202.074ZM103.875 189.949C123.1 188.549 139.85 184.649 152.5 178.624C158.775 175.649 164.125 171.249 165.9 167.599C166.675 166.024 166.75 165.649 166.75 163.724C166.75 161.074 166.2 159.799 164.225 157.724C163.45 156.899 162.725 156.224 162.625 156.224C162.525 156.224 162.375 157.274 162.325 158.549C162.2 161.149 161.575 162.974 159.975 165.374C153 175.874 130.675 183.924 103.125 185.849C84.075 187.174 66.05 184.724 55.275 179.324C52.075 177.699 50.9 176.924 48.85 175.049C46.225 172.599 44.5 169.499 44.2 166.674C44.125 165.874 43.975 165.224 43.85 165.224C43.5 165.224 41.45 168.299 41 169.524C40.45 171.024 40.6 173.849 41.325 175.474C43.325 180.074 50.475 184.299 60.8 186.974C71.925 189.874 89 191.049 103.875 189.949ZM103.625 181.199C120.125 180.074 136.15 176.149 146.375 170.674C152.6 167.374 156.55 163.449 157.55 159.674C157.95 158.149 157.85 155.699 157.425 155.749C157.325 155.749 156.925 156.424 156.525 157.274C155.175 160.149 151.3 163.374 146.25 165.924C130.9 173.574 100.95 177.749 77.625 175.474C68.75 174.599 60.75 172.699 56.125 170.349C53.075 168.799 50.225 166.349 49.225 164.424C49.025 164.049 48.8 163.724 48.7 163.724C48.375 163.724 48.85 166.949 49.35 168.099C53.525 177.524 76.425 183.049 103.625 181.199ZM100.125 171.224C117.325 170.249 133.4 166.874 143.525 162.099C146.825 160.549 149.025 159.099 150.825 157.299C156.825 151.324 150.825 145.674 135.475 142.849C132.6 142.324 131.725 142.249 130.8 142.449C127.35 143.224 117.175 142.974 110.875 141.949C107.175 141.324 102.8 141.424 95.8 142.224C76.275 144.499 60.175 149.699 54.775 155.474C51.9 158.524 51.95 161.424 54.875 164.049C58.875 167.649 68.75 170.324 81.125 171.174C85.55 171.499 94.975 171.499 100.125 171.224ZM130.275 137.849C132.725 137.424 134.575 136.674 135.825 135.599C137.575 134.124 138.8 130.324 138.35 127.824C138.075 126.424 137.875 126.049 136.8 125.024L135.95 124.199L135.625 124.974C135.45 125.399 134.8 126.174 134.2 126.724C132 128.674 128.75 129.374 123.125 129.149C112.15 128.699 98.425 125.124 87.75 119.974C82.175 117.274 79.35 115.099 78.1 112.599C77.375 111.124 77.325 110.824 77.45 109.474C77.625 107.999 77.6 107.974 77 107.974C75.375 107.974 72.85 109.849 71.85 111.799C71.25 112.949 70.925 115.399 71.15 117.099C71.675 121.174 75.4 124.524 84.375 128.999C93.275 133.449 103.95 136.574 114.5 137.824C118.75 138.324 127.45 138.324 130.275 137.849ZM214.8 136.999C215.425 136.699 216.2 136.049 216.75 135.299C218.1 133.474 220.025 129.349 220.625 126.999C221.65 122.974 221.525 117.849 220.375 116.224C219.9 115.549 217.175 113.974 216.475 113.974C216.275 113.974 216.45 114.449 216.95 115.274C217.7 116.474 217.75 116.699 217.825 119.324C217.975 123.924 217.125 127.724 214.925 132.174C213.6 134.824 212.5 136.249 211.375 136.724C210.8 136.949 210.675 137.099 210.925 137.249C211.5 137.624 213.725 137.474 214.8 136.999ZM209 132.674C209.475 132.474 210 131.674 210.9 129.874C212.4 126.799 213.1 124.174 213.3 120.774C213.45 118.324 213.425 118.174 212.875 117.599C212.55 117.249 212.125 116.974 211.95 116.974C211.75 116.974 208.375 116.074 204.425 114.999C200.475 113.899 193.65 112.049 189.25 110.849C184.85 109.649 178.225 107.849 174.5 106.849C170.8 105.824 161.725 103.374 154.375 101.374C147.025 99.3745 139.525 97.3245 137.725 96.8245C135.9 96.3245 134.175 95.9745 133.85 96.0245C133.375 96.0745 133 96.5995 132.075 98.4745C131.425 99.7745 130.6 101.824 130.275 103.024C129.5 105.749 128.95 110.274 129.3 111.049C129.525 111.499 130.2 111.774 133.025 112.549C134.95 113.049 138.8 114.099 141.625 114.874C144.45 115.624 150.175 117.199 154.375 118.349C158.575 119.499 169.55 122.474 178.75 124.974C187.975 127.499 198.25 130.299 201.625 131.224C205 132.174 207.875 132.949 208.05 132.949C208.225 132.974 208.65 132.849 209 132.674ZM129.6 124.074C130.275 123.874 130.95 123.574 131.1 123.374C131.35 123.074 132.875 117.974 132.875 117.449C132.875 117.349 131.725 116.974 130.35 116.574C127.225 115.699 126.15 114.974 125.25 113.099C124.575 111.749 124.55 111.574 124.7 108.899C124.925 104.174 125.95 100.274 128.075 96.0245C129.35 93.4245 130.7 91.9995 132.325 91.5245C133.725 91.0995 134.45 91.1495 137.1 91.8495C138.4 92.1995 139.5 92.4495 139.55 92.3745C139.6 92.3245 139.8 91.6995 140 90.9995L140.325 89.7245H139.675C137.925 89.6995 131.175 89.1745 128.375 88.8245C116.7 87.3745 102.8 83.1745 93.65 78.2995C92.225 77.5495 90.975 77.0245 90.875 77.1495C90.575 77.4495 82.125 109.249 82.125 110.024C82.125 112.399 91.75 117.474 102.375 120.674C108.625 122.574 116.4 124.124 121.75 124.574C123.875 124.724 128.325 124.474 129.6 124.074ZM145.45 84.5995C149.45 83.7495 152.025 81.1245 152.55 77.3495C152.7 76.2245 152.675 76.1495 152.225 76.3495C150 77.2745 148.975 77.5245 146.875 77.7245C145.55 77.8245 143.95 77.8745 143.35 77.8245C136.125 77.2245 129.5 76.1245 121.875 74.2245C103.3 69.5995 89.625 63.8745 86.875 59.5495L86.125 58.3995L85.725 59.3495C85.05 60.9995 84.975 63.4245 85.575 65.3745C86.4 68.0245 87.7 69.4745 91.3 71.6995C102.3 78.4995 118.775 83.5745 134 84.7995C137.075 85.0495 143.875 84.9495 145.45 84.5995ZM149.2 72.6495C150.825 71.9495 150.375 70.6745 147.925 68.9995C141.675 64.7495 124.7 59.0495 109.5 56.0995C103.575 54.9495 100.875 54.6495 96.375 54.6245C91.425 54.5995 90.575 54.7995 90.425 56.0495C89.95 60.1495 116.65 69.5745 136.875 72.4495C141.5 73.1245 142.425 73.1745 145.625 73.0995C147.325 73.0495 148.575 72.8995 149.2 72.6495Z" fill="#1F2332"/>
<path d="M23.25 237L45.25 214" stroke="white" stroke-width="4" stroke-linecap="round"/>
<path d="M117.445 241.683L118.503 216" stroke="white" stroke-width="4" stroke-linecap="round"/>
<path d="M172.25 242L156.25 209" stroke="white" stroke-width="4" stroke-linecap="round"/>
<path d="M235.25 184L188.25 158" stroke="white" stroke-width="4" stroke-linecap="round"/>
<path d="M231.25 75L192.25 93.0813" stroke="white" stroke-width="4" stroke-linecap="round"/>
<path d="M175.25 64L165.25 80.3474" stroke="white" stroke-width="4" stroke-linecap="round"/>
<path d="M190.882 37L180.882 53.3474" stroke="white" stroke-width="4" stroke-linecap="round"/>
<path d="M112.369 2.76329L113.182 41" stroke="white" stroke-width="4" stroke-linecap="round"/>
<path d="M92.25 22L98.1821 41" stroke="white" stroke-width="4" stroke-linecap="round"/>
<path d="M22.25 50L57.9652 76" stroke="white" stroke-width="4" stroke-linecap="round"/>
<path d="M38.25 109L46.9652 111.467" stroke="white" stroke-width="4" stroke-linecap="round"/>
<path d="M2.90189 99.0672L28.9652 106.446" stroke="white" stroke-width="4" stroke-linecap="round"/>
</g>
<defs>
<clipPath id="clip0_1_10120">
<rect width="256" height="256" fill="white" transform="translate(0.5)"/>
</clipPath>
</defs>
</svg>
