<svg width="189" height="32" viewBox="0 0 189 32" fill="none" xmlns="http://www.w3.org/2000/svg">
<g clip-path="url(#clip0_6_601)">
<path d="M110.002 13.2622H116.756C119.51 13.2622 121.21 13.5737 122.407 14.2443C123.651 14.9388 124.49 16.0639 124.49 17.6214C124.49 19.1788 123.556 20.3039 121.855 20.949V20.9967C124.274 21.8103 125.209 23.3439 125.209 25.2588C125.209 27.2707 124.179 28.8265 122.191 29.7133C120.873 30.3124 119.125 30.6001 117.018 30.6001H110V13.2639L110.002 13.2622ZM117.379 20.1831C118.863 20.1831 119.557 19.7286 119.557 18.675C119.557 18.1235 119.365 17.7167 118.839 17.4545C118.48 17.2622 117.929 17.1907 116.899 17.1907H114.934V20.1848H117.379V20.1831ZM117.043 26.6716C118.456 26.6716 119.174 26.5524 119.581 26.3363C120.06 26.0724 120.276 25.6418 120.276 25.0188C120.276 23.846 119.462 23.3422 117.881 23.3422H114.934V26.6699H117.043V26.6716Z" fill="#68C860"/>
<path d="M127.076 13.2622H139.769V17.429H132.009V19.6316H138.787V23.5584H132.009V26.4316H140.057V30.5984H127.076V13.2622Z" fill="#68C860"/>
<path d="M142.465 13.2622H147.398V26.4316H155.171V30.5984H142.465V13.2622Z" fill="#68C860"/>
<path d="M157.077 13.2622H162.01V26.4316H169.784V30.5984H157.077V13.2622Z" fill="#68C860"/>
<path d="M179.305 13C184.526 13 188.572 16.9268 188.572 21.9311C188.572 26.9353 184.526 30.8621 179.305 30.8621C174.085 30.8621 170.039 26.9353 170.039 21.9311C170.039 16.9268 174.087 13 179.305 13ZM179.305 26.4332C181.748 26.4332 183.639 24.4451 183.639 21.9311C183.639 19.417 181.748 17.4289 179.305 17.4289C176.863 17.4289 174.972 19.417 174.972 21.9311C174.972 24.4451 176.863 26.4332 179.305 26.4332Z" fill="#68C860"/>
<path d="M58.3327 13C63.5531 13 67.599 16.9268 67.599 21.9311C67.599 26.9353 63.5531 30.8621 58.3327 30.8621C53.1122 30.8621 49.0663 26.9353 49.0663 21.9311C49.0663 16.9268 53.1139 13 58.3327 13ZM58.3327 26.4332C60.7752 26.4332 62.6663 24.4451 62.6663 21.9311C62.6663 19.417 60.7752 17.4289 58.3327 17.4289C55.8901 17.4289 53.999 19.417 53.999 21.9311C53.999 24.4451 55.8901 26.4332 58.3327 26.4332Z" fill="white"/>
<path d="M98.4655 13C103.686 13 107.732 16.9268 107.732 21.9311C107.732 26.9353 103.686 30.8621 98.4655 30.8621C93.2451 30.8621 89.1991 26.9353 89.1991 21.9311C89.1991 16.9268 93.2468 13 98.4655 13ZM98.4655 26.4332C100.908 26.4332 102.799 24.4451 102.799 21.9311C102.799 19.417 100.908 17.4289 98.4655 17.4289C96.0229 17.4289 94.1319 19.417 94.1319 21.9311C94.1319 24.4451 96.0229 26.4332 98.4655 26.4332Z" fill="white"/>
<path d="M45.9906 26.9353C46.9694 25.5157 47.5328 23.7983 47.5328 21.9311C47.5328 16.9268 43.4868 13 38.2664 13C33.046 13 29 16.9268 29 21.9311C29 26.9353 33.0477 30.8621 38.2664 30.8621H48.3004V26.9353H45.9923H45.9906ZM33.9311 21.9311C33.9311 19.417 35.8221 17.4289 38.2647 17.4289C40.7072 17.4289 42.5983 19.417 42.5983 21.9311C42.5983 24.4451 40.7072 26.4332 38.2647 26.4332C35.8221 26.4332 33.9311 24.4451 33.9311 21.9311Z" fill="white"/>
<path d="M86.1235 26.9353C87.1022 25.5157 87.6656 23.7983 87.6656 21.9311C87.6656 16.9268 83.6196 13 78.3992 13C73.1788 13 69.1328 16.9268 69.1328 21.9311C69.1328 26.9353 73.1805 30.8621 78.3992 30.8621H88.4332V26.9353H86.1252H86.1235ZM74.0639 21.9311C74.0639 19.417 75.9549 17.4289 78.3975 17.4289C80.84 17.4289 82.7311 19.417 82.7311 21.9311C82.7311 24.4451 80.84 26.4332 78.3975 26.4332C75.9549 26.4332 74.0639 24.4451 74.0639 21.9311Z" fill="white"/>
<path d="M25.818 13.2364C24.3678 9.60748 19.4419 7.83046 14.8342 7.10024C14.1108 6.9862 13.3721 6.89258 12.6316 6.83131L12.6112 5.04918C12.5976 3.91216 11.9729 2.85854 10.9823 2.30195L7.24781 0.204925C7.08271 0.111308 6.90228 0.0500303 6.71505 0.019392C6.05802 -0.0844378 5.3993 0.235563 5.07419 0.814287C4.64356 1.58195 4.9176 2.55726 5.68526 2.9879L9.41973 5.08493L9.44015 6.76663C6.61122 6.91812 4.0342 7.69088 2.49377 9.54109C1.4776 10.7615 0.755898 12.5828 0.367813 15.0305C-0.901974 23.0492 3.83845 30.4619 10.9567 31.5905C18.075 32.7173 24.8733 27.1309 26.1431 19.1139C26.5312 16.6662 26.407 14.7105 25.818 13.2364Z" fill="#1F2332"/>
<path d="M11.1116 30.6049C17.675 31.6449 23.9746 26.4193 25.1575 18.9572C25.4809 16.9113 25.4282 15.2295 25.0061 13.941C24.0903 16.8159 18.5941 17.3061 13.3499 16.4755C8.10052 15.6449 3.01967 13.4781 3.0469 10.4551C2.2469 11.5495 1.67839 13.1376 1.35328 15.187C0.172007 22.6491 4.54988 29.5649 11.1116 30.6049Z" fill="#68C860"/>
<path d="M21.3856 10.1215C19.6409 9.22449 17.258 8.50449 14.6758 8.09598C13.9848 7.98704 13.3022 7.90364 12.6333 7.84577C12.6367 8.23045 12.6418 8.63385 12.6469 9.04917C13.2341 9.10364 13.8486 9.17853 14.4886 9.27896C19.8895 10.1351 23.0997 12.1692 22.9363 13.1956C22.7746 14.2202 19.0912 15.1649 13.692 14.3087C8.29115 13.4526 5.08094 11.4185 5.24435 10.3921C5.34818 9.73172 6.91413 9.10704 9.45371 8.97258C9.4486 8.55896 9.4435 8.15555 9.44009 7.77087C8.81201 7.80151 8.21796 7.85938 7.66818 7.9496C4.91073 8.39725 4.18392 9.42364 4.06137 10.2049C3.93881 10.9862 4.31158 12.1879 6.79498 13.4645C8.53967 14.3615 10.9226 15.0815 13.5048 15.49C16.0869 15.8985 18.5754 15.9513 20.5124 15.6364C23.2699 15.1887 23.9967 14.1624 24.1192 13.3811C24.2418 12.5998 23.869 11.3981 21.3856 10.1215Z" fill="white"/>
<path d="M6.5177 23.2705L6.85472 23.8237C7.83174 25.4271 9.64281 26.5777 11.699 26.9046C13.7551 27.2297 15.8334 26.6952 17.2581 25.4714L17.75 25.0492L6.5194 23.2705H6.5177Z" fill="#1F2332"/>
<path d="M5.68875 21.1905C6.30449 21.1905 6.80364 20.6913 6.80364 20.0756C6.80364 19.4598 6.30449 18.9607 5.68875 18.9607C5.07301 18.9607 4.57385 19.4598 4.57385 20.0756C4.57385 20.6913 5.07301 21.1905 5.68875 21.1905Z" fill="#1F2332"/>
<path d="M19.5237 23.3827C20.1394 23.3827 20.6386 22.8836 20.6386 22.2678C20.6386 21.6521 20.1394 21.153 19.5237 21.153C18.908 21.153 18.4088 21.6521 18.4088 22.2678C18.4088 22.8836 18.908 23.3827 19.5237 23.3827Z" fill="#1F2332"/>
<path d="M11.7911 26.312C12.5945 26.4396 13.3997 26.4243 14.1605 26.2779C13.4882 25.9205 12.7324 25.66 11.9154 25.5307C11.0984 25.4013 10.2984 25.4149 9.54944 25.5477C10.2269 25.9205 10.9894 26.1843 11.7928 26.312H11.7911Z" fill="#C7577C"/>
<path d="M11.6141 5.05924C11.6056 4.27796 11.1749 3.55285 10.4941 3.17158L6.75963 1.07456C6.47027 0.912854 6.10601 1.01498 5.94431 1.30264C5.78261 1.5903 5.88473 1.95626 6.17239 2.11796L9.90686 4.21498C10.2166 4.3886 10.4124 4.71711 10.4158 5.07285L10.5026 12.5673C10.8703 12.678 11.272 12.7886 11.7043 12.8941L11.6124 5.05924H11.6141Z" fill="#C7577C"/>
</g>
<defs>
<clipPath id="clip0_6_601">
<rect width="189" height="32" fill="white"/>
</clipPath>
</defs>
</svg>
