<svg width="257" height="256" viewBox="0 0 257 256" fill="none" xmlns="http://www.w3.org/2000/svg">
<path d="M97.3156 221.384C93.0906 220.809 89.0406 219.309 87.0656 217.609C85.5156 216.259 85.5406 215.609 87.5406 206.084C88.4906 201.659 89.2906 197.984 89.3156 197.959C89.3406 197.909 90.5156 199.059 91.9156 200.509C96.7656 205.534 103.741 210.234 110.366 212.909L112.416 213.759V216.359C112.416 217.784 112.291 219.159 112.141 219.459C111.516 220.609 107.916 221.409 102.791 221.534C100.741 221.584 98.2656 221.534 97.3156 221.384Z" fill="#265922"/>
<path d="M172.041 214.484C171.591 214.409 171.441 213.909 170.841 211.084C170.466 209.259 170.166 207.659 170.166 207.509C170.166 207.359 171.441 206.284 172.991 205.134C176.266 202.684 182.166 196.909 184.391 193.959C185.266 192.809 186.016 191.909 186.066 191.959C186.416 192.309 191.466 206.459 191.491 207.184C191.541 208.334 190.991 209.159 189.341 210.359C186.866 212.209 183.916 213.359 179.566 214.184C177.291 214.609 173.441 214.784 172.041 214.484Z" fill="#265922"/>
<path d="M116.666 111.359C116.041 111.034 115.291 110.384 114.966 109.909C114.441 109.134 114.391 108.809 114.466 107.159C114.616 104.759 115.416 103.184 117.666 100.884C119.516 99.0086 121.416 97.8336 123.541 97.2836C126.541 96.5086 128.991 97.0336 130.191 98.6836C131.091 99.9336 131.041 102.509 130.116 104.434C129.116 106.459 127.816 108.009 125.941 109.359C123.741 110.984 121.966 111.684 119.666 111.834C118.041 111.934 117.641 111.859 116.666 111.359Z" fill="#C7577C"/>
<path d="M117.091 86.3836C115.141 85.2336 114.741 79.0836 116.191 72.1086C118.016 63.2586 122.416 55.7836 125.141 56.9086C127.591 57.9086 127.866 65.4586 125.766 73.5086C124.166 79.6086 121.216 85.0836 118.891 86.2836C118.066 86.7086 117.716 86.7336 117.091 86.3836Z" fill="#C7577C"/>
<path d="M110.341 84.7086C110.116 84.4586 109.741 83.7586 109.491 83.1586C108.816 81.4086 108.891 75.4086 109.616 71.6836C111.341 63.0336 115.341 55.4086 118.141 55.4086C118.666 55.4086 118.641 55.4836 117.816 56.5586C115.466 59.6336 113.016 65.8336 111.741 71.8586C111.216 74.4836 111.091 75.7336 111.066 79.0336C111.041 81.2336 111.116 83.5086 111.241 84.1086C111.441 85.2836 111.091 85.5336 110.341 84.7086Z" fill="#C7577C"/>
<path d="M81.1906 82.5336C76.6906 80.4336 70.5906 73.9086 65.4656 65.6836C61.0406 58.6336 57.3406 49.5586 56.6656 44.0586C56.2906 41.0336 56.9156 38.3336 58.1656 37.6586C58.6406 37.4086 58.6656 37.4586 58.6656 38.6086C58.6656 46.5586 65.4156 61.5336 73.7156 71.9586C77.1656 76.2836 81.8406 80.6086 84.6156 82.0086C86.8906 83.1586 83.6156 83.6586 81.1906 82.5336Z" fill="#C7577C"/>
<path d="M88.9906 79.1836C88.5656 79.0586 87.5406 78.6086 86.7406 78.1586C77.9906 73.2586 66.2406 55.1336 63.5156 42.3336C63.0656 40.1586 63.0656 36.4086 63.5156 35.3336C64.8156 32.3086 68.0406 32.6586 72.6906 36.3586C80.7156 42.7086 90.3906 58.5336 92.9156 69.4086C93.5406 72.1086 93.6906 75.5836 93.2156 76.9336C92.5656 78.7586 90.9156 79.6586 88.9906 79.1836Z" fill="#C7577C"/>
<path d="M110.041 189.909C104.991 189.109 100.591 185.909 98.2656 181.309C95.1406 175.184 96.1406 167.859 100.791 162.959C106.241 157.184 116.266 155.734 124.166 159.609C125.591 160.309 126.566 161.034 128.166 162.659C130.666 165.134 131.666 166.884 132.416 169.934C134.491 178.634 129.266 187.084 120.316 189.434C118.216 189.984 112.316 190.259 110.041 189.909ZM117.866 177.809C118.666 177.109 119.416 175.134 119.416 173.684C119.416 171.384 117.941 169.159 116.416 169.159C115.341 169.159 114.241 170.234 113.791 171.734C113.116 174.009 113.491 176.159 114.791 177.559C115.791 178.609 116.791 178.684 117.866 177.809ZM105.991 177.234C106.941 176.209 107.416 174.884 107.416 173.134C107.416 169.684 104.966 167.534 103.066 169.284C101.191 171.034 101.116 175.309 102.941 177.134C103.941 178.159 105.066 178.184 105.991 177.234Z" fill="#68C860"/>
<path d="M78.4656 141.584C77.7656 139.359 76.8406 136.234 76.4156 134.659C74.8406 128.609 73.1656 118.784 73.1656 115.684C73.1656 114.994 73.6701 114.408 74.3522 114.305L75.4906 114.134C78.3406 113.709 86.5156 113.709 89.2906 114.134C90.3906 114.309 92.5906 114.784 94.1656 115.184C97.2906 116.009 102.566 118.109 102.241 118.409C102.141 118.509 101.191 119.159 100.141 119.859C97.0406 121.934 94.7156 123.934 91.4156 127.334C86.7906 132.109 83.3156 137.284 81.0156 142.784C80.6365 143.673 80.3 144.469 80.0754 144.983C79.9021 145.379 79.6954 145.373 79.5553 144.964C79.3129 144.256 78.9094 143.01 78.4656 141.584Z" fill="#68C860"/>
<path d="M190.466 143.434C190.016 142.359 188.866 140.159 187.891 138.534C186.916 136.934 186.166 135.584 186.216 135.534C186.266 135.509 186.866 135.159 187.541 134.784C190.966 132.834 193.166 131.109 193.166 130.384C193.166 130.159 192.816 129.659 192.366 129.284C191.716 128.734 191.391 128.634 190.366 128.709C189.716 128.734 189.166 128.709 189.166 128.634C189.166 128.534 189.591 128.184 190.116 127.834C193.141 125.734 195.591 125.959 197.916 128.584C199.316 130.184 199.691 130.984 199.841 132.684C200.116 135.684 198.591 138.509 194.516 142.609C192.966 144.134 191.591 145.409 191.491 145.409C191.391 145.409 190.916 144.509 190.466 143.434Z" fill="#68C860"/>
<path d="M147.291 225.509C145.716 225.234 142.441 224.309 142.116 224.084C142.091 224.059 141.991 219.209 141.916 213.284L141.791 202.534H141.166H140.541L140.466 207.684L140.416 212.834L138.866 213.009C134.741 213.434 127.266 212.959 122.241 211.934C115.516 210.559 108.891 207.859 103.416 204.234C89.1906 194.859 81.1656 180.184 81.1656 163.609C81.1656 145.034 91.4656 128.634 108.541 120.084C111.866 118.409 114.966 117.159 115.791 117.159C116.766 117.159 116.741 117.584 115.741 118.184C113.341 119.609 109.616 122.459 107.666 124.359L105.541 126.434L108.641 126.309C110.341 126.234 113.791 126.159 116.291 126.159H120.841L121.791 124.759C123.791 121.859 127.366 118.684 131.066 116.559C134.216 114.759 135.891 114.159 137.766 114.159C139.291 114.159 144.541 114.759 146.416 115.134L147.291 115.309L145.691 116.284C143.741 117.459 139.691 120.684 138.166 122.259C137.266 123.209 137.091 123.509 137.316 123.834C137.466 124.059 137.691 124.284 137.816 124.334C137.966 124.384 139.166 123.409 140.516 122.184C146.966 116.259 153.991 113.084 163.991 111.484C166.941 111.034 174.641 110.884 177.466 111.259L178.891 111.434L179.066 113.084C179.316 115.534 179.016 126.334 178.566 129.784C177.516 138.209 176.066 144.809 173.641 151.984C173.091 153.609 172.691 155.109 172.766 155.334C172.841 155.534 173.141 155.659 173.466 155.609C173.941 155.534 174.191 155.009 175.241 151.909C176.641 147.709 178.166 141.784 178.941 137.534C179.241 135.884 179.516 134.484 179.566 134.434C179.891 134.084 183.916 140.159 185.666 143.634C190.966 154.209 191.841 166.309 188.141 177.659C186.391 183.034 182.566 189.634 178.516 194.234C176.016 197.084 169.416 202.784 169.066 202.384C169.016 202.334 168.566 200.309 168.066 197.909C167.566 195.509 167.016 193.384 166.841 193.209C166.466 192.859 165.666 193.059 165.666 193.509C165.666 193.684 166.841 199.434 168.291 206.284C170.241 215.484 170.891 219.034 170.791 219.734C170.341 222.284 164.166 224.959 157.141 225.634C153.366 225.984 149.766 225.959 147.291 225.509ZM120.316 193.934C130.391 191.859 137.216 183.659 137.191 173.659C137.191 165.584 132.916 158.884 125.541 155.384C121.266 153.359 116.866 152.609 112.291 153.134C104.391 154.034 98.7406 157.334 95.0406 163.259C91.0906 169.584 91.0656 177.909 94.9406 184.509C96.1406 186.534 99.3656 189.859 101.466 191.234C103.141 192.334 106.166 193.584 108.266 194.034C110.666 194.559 117.541 194.509 120.316 193.934ZM135.991 151.309C138.591 150.234 139.166 146.809 137.066 144.959C134.791 142.984 131.341 144.284 130.766 147.334C130.516 148.634 131.516 150.409 132.916 151.109C134.191 151.734 134.866 151.784 135.991 151.309ZM108.266 149.559C109.266 149.134 110.066 148.159 110.441 146.884C110.866 145.534 110.216 143.884 108.966 143.034C107.891 142.309 106.066 142.184 104.916 142.784C102.816 143.859 102.316 146.609 103.841 148.434C105.016 149.809 106.641 150.234 108.266 149.559Z" fill="#68C860"/>
<path d="M107.516 194.784C105.416 194.334 102.391 193.084 100.716 191.984C98.6156 190.609 95.3906 187.284 94.1906 185.259C90.1906 178.484 90.2406 169.059 94.2906 162.484C98.1656 156.234 104.691 152.734 113.366 152.234C118.141 151.984 122.316 152.759 126.291 154.634C131.991 157.334 135.866 162.009 137.441 168.034C138.191 170.909 138.191 176.459 137.441 179.284C135.291 187.309 129.266 192.984 121.066 194.684C118.266 195.259 109.991 195.334 107.516 194.784ZM119.391 188.734C125.916 187.134 130.716 182.134 131.841 175.734C132.241 173.559 132.216 173.309 131.791 171.259C131.091 167.934 129.991 165.934 127.441 163.409C125.816 161.809 124.816 161.034 123.416 160.359C119.516 158.434 115.791 157.834 111.966 158.509C107.341 159.309 104.216 160.859 101.541 163.709C99.0156 166.384 97.1906 170.709 97.1656 174.059C97.1656 176.684 98.9156 181.134 100.891 183.484C102.766 185.709 105.791 187.784 108.416 188.634C111.041 189.459 116.241 189.509 119.391 188.734Z" fill="#1F2332"/>
<path d="M114.041 178.309C112.116 176.259 112.216 170.709 114.191 169.059C114.816 168.534 115.216 168.409 116.416 168.409C117.616 168.409 118.016 168.534 118.616 169.034C120.691 170.784 120.666 176.809 118.616 178.559C118.016 179.059 117.616 179.159 116.366 179.159C114.966 179.159 114.791 179.084 114.041 178.309Z" fill="#1F2332"/>
<path d="M102.191 177.884C101.216 176.909 100.816 175.534 100.841 173.034C100.841 170.784 101.266 169.509 102.316 168.534C102.866 168.034 103.241 167.909 104.341 167.909C107.116 167.909 108.166 169.334 108.166 173.134C108.166 175.659 107.816 176.834 106.741 177.984C106.141 178.584 105.891 178.659 104.516 178.659C103.116 178.659 102.891 178.584 102.191 177.884Z" fill="#1F2332"/>
<path d="M132.166 151.859C131.341 151.434 130.891 150.984 130.491 150.159C129.266 147.759 130.041 144.809 132.166 143.709C133.116 143.209 133.566 143.134 134.991 143.234C136.816 143.359 137.566 143.734 138.516 145.009C138.941 145.584 139.041 146.059 139.041 147.784C139.041 150.034 138.766 150.684 137.341 151.759C136.266 152.559 133.616 152.609 132.166 151.859Z" fill="#1F2332"/>
<path d="M104.541 150.309C102.916 149.559 102.166 148.184 102.166 145.959C102.166 144.234 102.741 143.009 103.891 142.234C105.091 141.409 108.316 141.409 109.616 142.209C111.991 143.659 111.966 148.284 109.591 150.009C108.691 150.659 105.666 150.834 104.541 150.309Z" fill="#1F2332"/>
<path d="M115.166 90.534C111.766 89.859 109.266 89.109 108.341 88.509C107.041 87.659 105.991 86.109 105.341 84.059C104.866 82.509 104.791 81.759 104.816 78.034C104.816 74.409 104.916 73.309 105.516 70.534C107.516 60.934 111.391 53.684 115.491 51.759C117.166 50.984 118.741 50.984 121.866 51.759C123.191 52.084 124.966 52.484 125.766 52.659C127.066 52.934 127.441 53.159 128.691 54.409C129.916 55.609 130.216 56.109 130.716 57.684C131.241 59.334 131.291 60.009 131.266 63.909C131.266 68.934 130.666 72.334 128.941 77.634C126.741 84.334 123.966 88.459 120.566 90.159C118.916 90.984 117.866 91.059 115.166 90.534ZM119.541 84.359C123.741 79.984 127.441 66.709 126.141 60.609C125.866 59.334 125.316 58.234 124.816 57.859C123.966 57.284 121.616 60.084 119.916 63.709C116.666 70.684 115.116 80.859 116.816 84.209C117.341 85.284 117.666 85.659 117.991 85.659C118.141 85.659 118.841 85.059 119.541 84.359ZM110.766 72.284C110.991 71.059 111.416 69.209 111.691 68.184C111.966 67.184 112.141 66.309 112.091 66.234C111.941 66.084 110.741 70.559 110.316 72.834C109.766 75.834 109.566 78.634 109.816 80.309C110.016 81.659 110.041 81.484 110.191 78.159C110.266 76.159 110.541 73.534 110.766 72.284Z" fill="#1F2332"/>
<path d="M80.7906 87.009C79.2906 86.459 77.4406 85.459 76.0406 84.434C63.9156 75.634 50.7406 50.934 52.3906 40.159C52.7406 37.984 53.5906 36.059 54.7156 34.984C56.1906 33.559 63.3156 29.459 64.8906 29.134C67.4656 28.609 70.6906 29.634 74.1156 32.084C82.1656 37.809 91.7156 51.984 95.8156 64.284C97.3406 68.884 97.7156 70.809 97.7406 74.159C97.7406 77.409 97.2906 79.059 95.8406 80.959C95.0656 81.959 89.8656 85.309 86.7906 86.809C85.3156 87.509 82.4406 87.609 80.7906 87.009ZM81.6656 81.384C78.5906 78.884 77.3656 77.784 75.8156 76.034C67.1406 66.409 59.8906 52.584 58.2406 42.484C57.9156 40.359 57.7906 39.959 57.5906 40.434C57.2156 41.434 57.5656 45.134 58.2656 47.509C60.5656 55.284 64.6656 63.284 70.1156 70.659C72.7906 74.284 78.1656 79.684 80.4156 80.984C82.2156 82.009 82.5906 82.134 81.6656 81.384ZM91.4656 77.734C92.3906 76.759 92.7156 75.784 92.6906 73.909C92.6156 67.534 86.5656 54.334 79.4406 45.059C74.8156 39.009 69.0406 34.159 66.4656 34.159C65.6656 34.159 64.5906 35.134 64.1906 36.234C63.0906 39.134 65.1406 46.609 69.2656 54.909C71.3656 59.084 73.6156 62.709 76.5906 66.709C80.6656 72.159 84.1656 75.559 87.6656 77.509C89.6656 78.609 90.5906 78.659 91.4656 77.734Z" fill="#1F2332"/>
<path d="M149.766 227.109C148.216 227.009 146.041 226.709 144.891 226.409C140.891 225.409 140.416 224.784 140.416 220.284V217.284L135.591 217.359C130.091 217.459 125.241 217.009 120.791 216.009C119.291 215.659 117.741 215.334 117.391 215.259L116.716 215.109L116.616 217.684C116.541 219.709 116.391 220.509 115.991 221.309C114.916 223.359 112.991 224.459 108.916 225.359C106.241 225.959 98.4406 225.934 95.1656 225.334C89.0156 224.184 83.8656 221.459 82.3656 218.559C81.9656 217.834 81.7906 216.934 81.7156 215.409C81.6406 213.484 81.8156 212.359 83.7906 203.184L85.9406 193.084L85.0406 191.709C81.2156 185.959 78.2406 177.809 77.2656 170.334C76.7656 166.534 76.8906 158.434 77.5156 155.059L77.9156 152.859L77.2656 151.184C72.9656 140.534 68.9656 123.434 68.8906 115.409C68.8656 112.784 69.6406 111.384 71.5406 110.659C72.9656 110.109 78.7906 109.409 81.8156 109.409C90.1156 109.409 97.3656 111.034 103.841 114.334L106.991 115.934L109.391 114.909C110.716 114.334 111.891 113.784 112.016 113.659C112.141 113.534 111.991 113.109 111.691 112.684C109.616 109.784 109.541 106.109 111.466 102.159C112.291 100.434 112.916 99.634 114.641 97.909C118.066 94.509 121.391 92.934 125.441 92.709C129.141 92.509 131.641 93.634 133.991 96.534C136.991 100.209 137.416 103.834 135.291 108.234C134.966 108.934 134.716 109.534 134.741 109.559C134.766 109.559 136.541 109.709 138.666 109.859C143.016 110.184 147.316 110.859 151.116 111.809C153.641 112.459 153.691 112.459 155.116 112.059C160.466 110.434 165.841 109.659 171.366 109.659C175.341 109.659 179.616 110.034 180.016 110.409C180.516 110.884 180.741 117.509 180.441 122.984L180.166 128.434L181.716 130.284C182.591 131.284 183.341 132.134 183.416 132.134C183.491 132.159 183.916 131.934 184.366 131.659C185.041 131.234 185.141 131.084 184.916 130.684C184.791 130.409 184.666 129.634 184.666 128.959C184.666 127.234 185.766 125.659 188.041 124.109C191.116 122.034 194.691 121.584 197.541 122.934C199.391 123.784 202.141 126.634 203.191 128.784C203.991 130.434 204.041 130.659 204.041 133.284C204.041 135.809 203.966 136.184 203.266 137.809C202.841 138.784 201.916 140.434 201.191 141.484C199.816 143.459 195.866 147.459 193.841 148.909C193.016 149.509 192.691 149.884 192.816 150.134C192.891 150.359 193.216 151.709 193.541 153.159C195.816 163.209 194.666 174.059 190.366 183.534C189.691 185.059 189.066 186.459 188.991 186.684C188.941 186.909 190.416 191.234 192.316 196.309C195.466 204.809 195.741 205.684 195.766 207.284C195.766 208.634 195.641 209.309 195.191 210.209C194.016 212.684 189.941 215.534 185.466 217.059C181.866 218.284 179.691 218.684 175.741 218.834C172.266 218.984 172.166 218.984 172.166 219.534C172.166 220.684 171.591 221.684 170.341 222.684C166.191 225.959 158.391 227.659 149.766 227.109ZM156.391 224.884C161.616 224.384 166.316 222.809 168.841 220.759C169.716 220.059 169.916 219.709 169.916 219.059C169.916 218.609 168.791 212.934 167.416 206.409C166.041 199.884 164.916 194.084 164.916 193.509C164.916 192.784 165.041 192.409 165.316 192.309C166.016 192.034 167.341 192.159 167.641 192.509C167.791 192.684 168.291 194.609 168.741 196.759C169.166 198.909 169.666 200.659 169.791 200.659C170.316 200.659 175.866 195.659 177.766 193.484C185.691 184.434 190.141 172.484 189.566 161.809C189.166 153.959 186.516 146.159 181.841 139.084L180.066 136.409L179.266 140.334C178.316 144.984 177.316 148.759 175.841 153.109L174.766 156.284H173.391H172.041L171.966 155.234C171.916 154.509 172.191 153.259 172.891 151.209C175.316 144.034 176.791 137.384 177.816 129.034C178.266 125.459 178.566 116.209 178.316 113.859L178.141 112.184L176.716 112.009C173.991 111.684 167.641 111.809 164.741 112.259C154.791 113.809 147.716 117.009 141.266 122.934C139.141 124.884 138.716 125.159 137.916 125.159C136.741 125.159 136.416 124.809 136.416 123.509C136.416 122.534 136.541 122.359 138.366 120.634C139.441 119.609 141.241 118.109 142.366 117.284C144.341 115.834 144.391 115.784 143.716 115.609C143.341 115.509 141.691 115.284 140.041 115.134C137.066 114.834 137.041 114.834 135.441 115.484C130.491 117.534 125.216 121.634 122.541 125.509L121.591 126.909H117.416C115.116 126.909 111.366 126.984 109.091 127.084L104.916 127.234V126.359C104.916 125.559 105.141 125.234 107.091 123.409C108.266 122.284 109.691 121.084 110.216 120.734C110.741 120.384 111.166 120.059 111.166 120.009C111.166 119.859 109.466 120.659 107.441 121.784C93.4406 129.534 84.2906 142.734 82.2906 158.059C80.5406 171.484 85.3156 185.684 95.0406 195.884C102.416 203.609 112.191 208.984 122.991 211.184C127.891 212.159 134.416 212.634 138.116 212.259L139.666 212.084L139.716 206.934L139.791 201.784H141.166H142.541L142.666 212.534C142.741 218.459 142.841 223.309 142.866 223.334C143.191 223.559 146.466 224.484 148.041 224.759C150.541 225.209 152.716 225.234 156.391 224.884ZM107.616 220.284C109.916 219.809 111.066 219.334 111.391 218.709C111.541 218.409 111.666 217.359 111.666 216.359V214.509L109.616 213.659C103.416 211.159 96.9406 206.909 92.1656 202.259L89.7656 199.934L88.1906 207.359C87.1656 212.284 86.6906 215.034 86.7906 215.484C87.2906 217.484 92.5406 219.884 98.0656 220.634C100.316 220.959 105.341 220.784 107.616 220.284ZM178.816 213.434C183.241 212.584 186.366 211.359 188.791 209.484C191.066 207.734 191.091 208.159 188.316 200.634C186.966 197.009 185.841 194.009 185.816 193.984C185.791 193.934 185.066 194.809 184.191 195.884C182.066 198.584 177.066 203.384 174.041 205.634C172.666 206.659 171.441 207.584 171.316 207.684C171.191 207.809 171.341 209.084 171.691 210.759C172.191 213.209 172.341 213.659 172.791 213.734C174.066 213.984 176.516 213.859 178.816 213.434ZM194.241 141.434C197.666 137.884 199.391 134.709 199.041 132.634C198.766 130.959 196.816 128.509 195.066 127.609C194.216 127.159 193.966 127.134 193.091 127.409L192.091 127.709L193.016 128.459C193.816 129.109 193.916 129.334 193.916 130.384C193.916 131.809 193.516 132.234 190.541 134.134C189.441 134.809 188.341 135.534 188.091 135.709C187.641 136.034 187.691 136.159 188.816 138.034C189.466 139.134 190.366 140.859 190.841 141.859C191.291 142.834 191.766 143.659 191.891 143.659C191.991 143.659 193.066 142.659 194.241 141.434ZM81.2656 139.859C82.8406 136.634 85.3906 132.634 87.5906 129.909C89.8406 127.134 95.2156 122.034 97.8656 120.159C99.1406 119.284 100.166 118.484 100.166 118.409C100.166 118.134 95.5156 116.459 93.0406 115.834C89.2656 114.859 86.9406 114.584 82.5406 114.559C77.6406 114.534 73.9156 115.009 73.9156 115.684C73.9156 118.084 75.8156 128.684 77.1906 133.909C77.9406 136.834 79.6906 142.659 79.8156 142.659C79.8406 142.659 80.4906 141.384 81.2656 139.859ZM122.166 110.359C126.116 108.809 130.041 104.284 130.041 101.259C130.041 99.884 129.041 98.584 127.541 98.034C126.591 97.659 126.191 97.634 124.966 97.884C122.691 98.334 120.491 99.559 118.541 101.534C115.541 104.534 114.491 107.359 115.716 109.159C116.041 109.634 116.791 110.284 117.416 110.609C118.741 111.284 119.966 111.234 122.166 110.359Z" fill="#1F2332"/>
<path fill-rule="evenodd" clip-rule="evenodd" d="M177.513 114.584C177.461 113.681 176.795 112.928 175.901 112.793C158.523 110.168 143.902 120.086 138.565 125.72C137.615 126.722 136.033 126.765 135.031 125.815C134.028 124.865 133.986 123.283 134.935 122.281C141.266 115.598 159.127 103.48 180.333 108.569L180.682 108.653C181.514 108.853 182.127 109.56 182.206 110.413L182.239 110.77C184.283 132.846 178.69 150.067 175.459 156.17C174.813 157.39 173.301 157.856 172.08 157.21C170.86 156.564 170.395 155.051 171.041 153.83C173.661 148.88 178.645 134.064 177.513 114.584Z" fill="#1F2332"/>
<path fill-rule="evenodd" clip-rule="evenodd" d="M166.365 191.562C167.712 191.257 169.051 192.102 169.355 193.449C170.601 198.96 173.428 212.211 174.723 220.978L174.755 221.191C174.835 221.735 174.688 222.288 174.347 222.72L174.214 222.89C170.129 228.076 163.17 229.918 156.802 230.375C150.324 230.841 143.767 229.925 139.662 228.932L139.28 228.839C138.382 228.622 137.75 227.819 137.75 226.895V203.286C137.75 201.906 138.869 200.786 140.25 200.786C141.631 200.786 142.75 201.906 142.75 203.286V222.837C142.75 223.795 143.428 224.621 144.373 224.774C147.855 225.336 152.195 225.693 156.444 225.388C161.509 225.025 165.97 223.758 168.88 221.257C169.356 220.848 169.549 220.212 169.449 219.593C168.079 211.114 165.622 199.611 164.478 194.551C164.174 193.205 165.019 191.866 166.365 191.562Z" fill="#1F2332"/>
<path d="M101.268 40.4187L95.0192 21.4119" stroke="white" stroke-width="4" stroke-linecap="round"/>
<path d="M218.739 77.5444L206.661 86.5261" stroke="white" stroke-width="4" stroke-linecap="round"/>
<path d="M250.3 124.821L218.002 132.786" stroke="white" stroke-width="4" stroke-linecap="round"/>
<path d="M222.133 185.259L214.075 181.61" stroke="white" stroke-width="4" stroke-linecap="round"/>
<path d="M253.108 199.254L232.028 189.707" stroke="white" stroke-width="4" stroke-linecap="round"/>
<path d="M228.875 248.903L208.159 229.027" stroke="white" stroke-width="4" stroke-linecap="round"/>
<path d="M156.326 250.268L154.173 235.032" stroke="white" stroke-width="4" stroke-linecap="round"/>
<path d="M100.117 247.4L105.959 234.019" stroke="white" stroke-width="4" stroke-linecap="round"/>
<path d="M52.2701 200.915L60.8561 194.796" stroke="white" stroke-width="4" stroke-linecap="round"/>
<path d="M14.8422 227.834L42.5621 208.079" stroke="white" stroke-width="4" stroke-linecap="round"/>
<path d="M9.59256 143.362L53.0471 145.382" stroke="white" stroke-width="4" stroke-linecap="round"/>
<path d="M12.25 79.8102L41.5552 93.801" stroke="white" stroke-width="4" stroke-linecap="round"/>
<path d="M121.954 11.0346L123.539 37.8564" stroke="white" stroke-width="4" stroke-linecap="round"/>
<path d="M189.532 38.8792L174.279 65.3552" stroke="white" stroke-width="4" stroke-linecap="round"/>
</svg>
