<svg width="257" height="256" viewBox="0 0 257 256" fill="none" xmlns="http://www.w3.org/2000/svg">
<path d="M140.6 128.538C140.125 128.488 138.325 128.313 136.6 128.188C125.2 127.213 111.9 124.063 103.2 120.263C95.35 116.838 90 112.788 88.075 108.763C87.3 107.188 87.25 106.863 87.225 104.563C87.225 102.313 87.3 101.913 87.925 100.638C89.725 96.9875 94.725 94.2875 102.225 92.9625C105.475 92.3875 111.425 91.8125 111.975 92.0375C112.275 92.1375 112.35 92.7375 112.35 95.4125V98.6625L111.3 98.7875C103.75 99.6375 100.225 100.363 97.5 101.688C95.775 102.513 94.1 103.888 94.1 104.488C94.1 105.213 95.725 107.288 97.15 108.413C106.875 116.038 128.95 121.913 147.975 121.938C157.275 121.938 165.675 120.063 168.55 117.363C169.45 116.513 169.55 115.838 168.95 114.938C164.625 108.463 146.825 101.663 128.55 99.5125L124.9 99.0875L124.75 98.3625C124.675 97.9625 124.6 96.4625 124.6 95.0375V92.4375H126.425C132 92.4625 145.775 95.2375 153.725 97.9375C165.775 102.063 173.125 106.763 175.575 111.938C176.15 113.163 176.225 113.613 176.225 116.063C176.225 118.463 176.15 118.963 175.625 120.013C173.6 124.113 168.1 126.738 158.6 128.088C156.1 128.438 142.725 128.788 140.6 128.538Z" fill="white"/>
<path d="M119.25 193.288C106.5 191.563 95.4 184.988 87.025 174.188C80.9 166.312 76.8 156.287 75.2249 145.387C74.6499 141.512 74.4749 134.413 74.8249 130.062C75.6499 120.087 78.025 111.613 81.775 105.363C82.55 104.088 82.7249 103.938 83.4499 103.938C84.2499 103.938 84.2999 103.987 84.4499 105.137C85.5249 113.087 94.175 120.012 109.525 125.162C121.625 129.237 134.825 131.438 147.325 131.438C153.825 131.438 156.875 131.187 161.35 130.287C167.925 128.962 172.3 126.987 175.35 123.938C176.525 122.763 177.475 121.537 177.925 120.637C178.575 119.287 178.675 119.188 179.475 119.188C180.3 119.188 180.3 119.187 180.7 120.912C181.425 124.062 181.6 126.013 181.6 131.062C181.6 142.638 179.15 152.987 174.075 162.688C170.95 168.637 167.55 173.262 162.85 177.938C153.85 186.938 143.125 192.213 131.35 193.438C128.1 193.762 122.225 193.713 119.25 193.288ZM131.975 175.312C136.275 174.387 140.55 172.512 143.7 170.137C145.175 169.037 145.35 168.813 144.95 168.663C144.7 168.563 140.825 167.888 136.35 167.188C124.025 165.263 119.025 164.463 115.725 163.938C114.075 163.662 110.2 163.062 107.1 162.562C104 162.088 101.275 161.637 101.05 161.587C100.5 161.462 100.65 161.787 102.15 163.812C106.675 169.912 114.05 174.188 122.475 175.562C125.1 175.988 129.325 175.863 131.975 175.312ZM157.1 159.438C158.15 158.912 158.875 158.013 159.3 156.738C159.825 155.188 158.475 153.063 156.45 152.288C155.475 151.913 155.35 151.912 154.325 152.387C153.025 152.962 152.275 153.738 151.725 155.038C151.325 155.988 151.325 156.038 152.025 157.413C153.175 159.688 155.075 160.463 157.1 159.438ZM97.225 149.562C98.4 148.662 99.2 147.113 99.025 145.988C98.825 144.863 97.8 143.537 96.6 142.938C95.275 142.263 94.65 142.312 93.25 143.188C91.675 144.188 90.9 145.812 91.3249 147.188C92.1749 150.037 95.075 151.213 97.225 149.562Z" fill="#68C860"/>
<path d="M120.475 174.313C118.125 173.913 115.425 173.088 113.2 172.063C111.425 171.238 111.35 171.187 111.35 170.337V169.488L113.275 169.288C116 169.038 122.4 169.313 124.55 169.788C126.875 170.288 129.775 171.263 131.375 172.063C132.475 172.638 132.6 172.788 132.6 173.538C132.6 174.363 132.575 174.363 131.3 174.538C129.175 174.788 122.375 174.663 120.475 174.313Z" fill="#C7577C"/>
<path d="M119.475 115.637C118.925 115.512 117.775 115.162 116.925 114.887L115.35 114.387L115.325 111.113C115.3 109.288 115.225 101.662 115.125 94.1625L114.975 80.5375L114.325 79.5375C113.65 78.5375 112.725 77.9625 99.35 70.4875C95.625 68.4125 95.3 68.0875 95.15 66.3375C94.925 63.7125 96.025 62.4375 98.45 62.4375C99.725 62.4375 100.15 62.5875 102.675 64.0375C104.225 64.9125 106.5 66.1875 107.75 66.8875C108.975 67.5625 111.725 69.1125 113.85 70.2875C119.7 73.5625 121.15 75.3125 121.6 79.6125C121.725 80.8125 121.875 89.4875 121.95 98.8875L122.075 115.938L121.275 115.912C120.825 115.887 120.025 115.787 119.475 115.637Z" fill="#C7577C"/>
<path d="M120.6 196.937C113.875 195.962 109.175 194.562 103.725 191.937C98.125 189.212 93.575 185.887 88.825 181.037C79.5 171.462 73.65 159.062 71.7 144.687C71.1 140.387 71.1 131.262 71.7 126.812C73.4 113.937 77.15 104.637 82.975 98.8124C88.775 93.0124 97.375 89.7374 109.925 88.5624L111.6 88.3874V84.7375C111.6 80.6625 111.8 81.1124 109.6 79.8874C100.425 74.7874 94.35 71.2625 93.775 70.7375C92.05 69.1375 91.3 66.3624 91.95 64.1374C92.7 61.4874 94.55 59.7874 97.3 59.1624C99.35 58.6874 100.45 59.0874 106.775 62.6374C109.9 64.3874 114 66.6874 115.85 67.7125C121.125 70.6124 123.625 73.4124 124.7 77.5875C124.925 78.4625 125.125 81.0125 125.25 83.8625L125.425 88.6624L126.075 88.7874C126.425 88.8624 127.525 88.9874 128.475 89.0624C138.425 89.9374 152.125 93.3374 160.575 96.9874C175.675 103.512 183.275 112.287 184.85 125.012C185.25 128.112 185.025 137.037 184.475 140.662C182.125 156.312 175.675 169.562 165.475 179.837C161.725 183.587 159.425 185.487 155.225 188.237C148.875 192.412 141.975 195.137 134.475 196.462C131.075 197.062 123.325 197.312 120.6 196.937ZM130.6 192.687C142.375 191.462 153.1 186.187 162.1 177.187C172.6 166.712 178.9 153.162 180.6 137.262C181.05 133.162 180.8 125.237 180.125 122.337C179.825 121.112 179.55 120.062 179.5 120.012C179.425 119.937 179.075 120.537 178.675 121.362C177.6 123.587 174.75 126.287 171.975 127.737C168 129.812 162.35 131.312 156.375 131.937C151.95 132.362 141.475 132.262 136 131.687C115.325 129.562 96.525 122.912 88.625 114.937C85.7 111.987 84.4 109.637 83.75 106.187L83.45 104.587L82.55 106.062C79.625 110.912 77.65 116.712 76.375 124.187C73.325 142.012 77.55 160.287 87.775 173.437C94.95 182.687 104.075 188.837 114.5 191.462C120 192.837 125.275 193.237 130.6 192.687ZM157.85 127.337C163.475 126.537 167.775 125.287 170.55 123.637C172.375 122.537 174.15 120.762 174.875 119.262C175.75 117.512 175.725 114.587 174.825 112.687C171.35 105.312 156.475 98.2124 137.15 94.6874C132.15 93.7874 127.95 93.1874 126.425 93.1874H125.35V95.0374C125.35 96.0374 125.425 97.2124 125.5 97.6124L125.65 98.3374L129.3 98.7624C136.6 99.6124 144.625 101.387 151.225 103.587C162.6 107.362 170.35 112.537 170.35 116.287C170.35 117.162 169.025 118.587 167.5 119.362C159.425 123.462 142.65 123.812 124.85 120.287C108.65 117.087 94.925 110.512 93.325 105.212C92.95 103.912 93.475 102.937 95.175 101.812C97.6 100.212 101.7 99.0374 106.975 98.4374C108.35 98.2874 109.95 98.0874 110.55 98.0374L111.6 97.9124V95.4374C111.6 94.0874 111.5 92.9124 111.375 92.8374C111.075 92.6374 104.825 93.3374 101.975 93.9124C90.925 96.0624 85.75 101.587 88.825 108.012C92.075 114.812 104.6 121.287 121.9 125.087C126.425 126.062 132.85 127.037 137.35 127.437C139.075 127.562 140.875 127.737 141.35 127.787C143.375 128.012 155.375 127.687 157.85 127.337ZM121.2 98.8874C121.125 89.9124 120.975 81.5625 120.85 80.3625C120.4 76.0625 118.95 74.3124 113.1 71.0374C110.975 69.8624 108.225 68.3124 107 67.6374C105.75 66.9374 103.475 65.6624 101.925 64.7874C100.4 63.9124 98.825 63.1874 98.475 63.1874C97.025 63.1874 95.675 64.8374 95.95 66.3124C96.15 67.3874 96.725 67.8624 100.1 69.7374C113.825 77.4374 114.4 77.7624 115.075 78.7874L115.725 79.7874L115.875 93.4124C115.975 100.912 116.05 108.537 116.075 110.362L116.1 113.637L117.675 114.137C118.525 114.412 119.675 114.762 120.225 114.887C120.775 115.037 121.25 115.137 121.275 115.162C121.3 115.187 121.25 107.837 121.2 98.8874Z" fill="#1F2332"/>
<path d="M121.725 176.313C118.075 175.713 115.175 174.788 111.975 173.188C106.35 170.363 102.425 166.738 99.4999 161.588L98.7999 160.388L99.7499 160.538C104.975 161.363 114.075 162.788 116.475 163.188C118.125 163.463 121.625 164.013 124.225 164.413C139.625 166.838 146.55 167.963 147.075 168.088C147.65 168.213 147.625 168.238 146.6 169.138C142.4 172.763 138.15 174.888 132.725 176.063C130.15 176.638 124.45 176.763 121.725 176.313ZM130.85 173.713L131.975 173.538L130.675 172.863C129.05 172.013 126.2 171.063 123.8 170.538C121.575 170.063 115.25 169.813 113.35 170.138L111.975 170.363L113.875 171.263C116.15 172.313 118.8 173.163 121.225 173.563C123.175 173.913 129.1 174.013 130.85 173.713Z" fill="#1F2332"/>
<path d="M154.05 160.588C152.475 160.038 151.85 159.463 151.2 158.113C150.5 156.563 150.45 155.413 151.075 154.063C151.625 152.863 152.425 152.088 153.65 151.563C157.4 150.013 161.35 153.638 160.05 157.463C159.575 158.888 158.825 159.713 157.5 160.338C156.05 161.013 155.375 161.063 154.05 160.588Z" fill="#1F2332"/>
<path d="M94.2249 151.188C92.4499 150.788 91.3749 149.913 90.7249 148.363C89.3999 145.163 91.6249 141.688 95.0249 141.688C97.4749 141.688 99.2999 143.137 99.8249 145.462C100.55 148.737 97.4249 151.938 94.2249 151.188Z" fill="#1F2332"/>
<path d="M200.385 242.451L173.115 203.549" stroke="white" stroke-width="4" stroke-linecap="round"/>
<path d="M194.409 173.76L202.657 177.963" stroke="white" stroke-width="4" stroke-linecap="round"/>
<path d="M211.096 181.971L230.766 191.993" stroke="white" stroke-width="4" stroke-linecap="round"/>
<path d="M200.25 129.116L233.347 124.411" stroke="white" stroke-width="4" stroke-linecap="round"/>
<path d="M176.25 72.5206L191.25 51" stroke="white" stroke-width="4" stroke-linecap="round"/>
<path d="M133.679 12.9865L134.821 62.8555" stroke="white" stroke-width="4" stroke-linecap="round"/>
<path d="M78.8394 58.842L71.25 43" stroke="white" stroke-width="4" stroke-linecap="round"/>
<path d="M15.1073 119.314L56.9597 122.528" stroke="white" stroke-width="4" stroke-linecap="round"/>
<path d="M67.8172 172.952L59.25 181" stroke="white" stroke-width="4" stroke-linecap="round"/>
<path d="M109.817 212.484L101.951 244.795" stroke="white" stroke-width="4" stroke-linecap="round"/>
<path d="M128.699 212L129.25 232" stroke="white" stroke-width="4" stroke-linecap="round"/>
<path d="M52.8172 186.484L48.1091 190.906" stroke="white" stroke-width="4" stroke-linecap="round"/>
<path d="M197.25 41.8421L207.095 27.7173" stroke="white" stroke-width="4" stroke-linecap="round"/>
</svg>
