<svg width="157" height="64" viewBox="0 0 157 64" fill="none" xmlns="http://www.w3.org/2000/svg">
<g clip-path="url(#clip0_1_10183)">
<path d="M60.3022 40.5987H68.486C71.8222 40.5987 73.8826 40.9765 75.334 41.7879C76.8431 42.6302 77.8589 43.9928 77.8589 45.8797C77.8589 47.7667 76.7275 49.1293 74.6671 49.9138V49.9716C77.5988 50.9584 78.7301 52.8144 78.7301 55.137C78.7301 57.5752 77.4831 59.4601 75.0739 60.5337C73.478 61.2583 71.3598 61.6072 68.806 61.6072H60.3022V40.5987ZM69.2416 48.9848C71.0398 48.9848 71.8821 48.4335 71.8821 47.1556C71.8821 46.4888 71.6509 45.9953 71.0109 45.6753C70.5753 45.4441 69.9084 45.3553 68.6615 45.3553H66.2811V48.9827H69.2437L69.2416 48.9848ZM68.8349 56.8485C70.5464 56.8485 71.4176 56.704 71.911 56.4418C72.4912 56.1218 72.7533 55.5995 72.7533 54.8459C72.7533 53.4235 71.7665 52.8144 69.8506 52.8144H66.279V56.8485H68.8349Z" fill="#68C860"/>
<path d="M80.994 40.5986H96.3747V45.6484H86.9708V48.3179H95.1834V53.0766H86.9708V56.5594H96.7215V61.6092H80.9919V40.6007L80.994 40.5986Z" fill="#68C860"/>
<path d="M99.6424 40.5986H105.619V56.5573H115.04V61.6072H99.6404V40.5986H99.6424Z" fill="#68C860"/>
<path d="M117.349 40.5986H123.326V56.5573H132.747V61.6072H117.347V40.5986H117.349Z" fill="#68C860"/>
<path d="M144.287 40.2808C150.613 40.2808 155.516 45.0395 155.516 51.105C155.516 57.1706 150.613 61.9293 144.287 61.9293C137.961 61.9293 133.058 57.1706 133.058 51.105C133.058 45.0395 137.961 40.2808 144.287 40.2808ZM144.287 56.5595C147.247 56.5595 149.539 54.1502 149.539 51.105C149.539 48.0599 147.247 45.6506 144.287 45.6506C141.326 45.6506 139.035 48.0599 139.035 51.105C139.035 54.1502 141.326 56.5595 144.287 56.5595Z" fill="#68C860"/>
<path d="M95.5316 15.6855C101.857 15.6855 106.761 20.4443 106.761 26.5098C106.761 32.5754 101.857 37.3341 95.5316 37.3341C89.206 37.3341 84.3027 32.5754 84.3027 26.5098C84.3027 20.4443 89.206 15.6855 95.5316 15.6855ZM95.5316 31.9643C98.4922 31.9643 100.784 29.555 100.784 26.5098C100.784 23.4646 98.4922 21.0554 95.5316 21.0554C92.5711 21.0554 90.2795 23.4646 90.2795 26.5098C90.2795 29.555 92.5711 31.9643 95.5316 31.9643Z" fill="white"/>
<path d="M144.164 15.6855C150.49 15.6855 155.393 20.4443 155.393 26.5098C155.393 32.5754 150.49 37.3341 144.164 37.3341C137.839 37.3341 132.936 32.5754 132.936 26.5098C132.936 20.4443 137.839 15.6855 144.164 15.6855ZM144.164 31.9643C147.125 31.9643 149.417 29.555 149.417 26.5098C149.417 23.4646 147.125 21.0554 144.164 21.0554C141.204 21.0554 138.912 23.4646 138.912 26.5098C138.912 29.555 141.204 31.9643 144.164 31.9643Z" fill="white"/>
<path d="M80.574 32.5739C81.759 30.8541 82.4424 28.7731 82.4424 26.5083C82.4424 20.4428 77.5391 15.6841 71.2135 15.6841C64.8878 15.6841 59.9846 20.4428 59.9846 26.5083C59.9846 32.5739 64.8878 37.3326 71.2135 37.3326H83.3714V32.5739H80.574ZM65.9613 26.5083C65.9613 23.4611 68.2529 21.0539 71.2135 21.0539C74.174 21.0539 76.4656 23.4632 76.4656 26.5083C76.4656 29.5535 74.174 31.9628 71.2135 31.9628C68.2529 31.9628 65.9613 29.5535 65.9613 26.5083Z" fill="white"/>
<path d="M129.211 32.5734C130.396 30.8537 131.079 28.7726 131.079 26.5079C131.079 20.4423 126.176 15.6836 119.85 15.6836C113.524 15.6836 108.621 20.4423 108.621 26.5079C108.621 32.5734 113.524 37.3321 119.85 37.3321H132.008V32.5734H129.211ZM114.598 26.5079C114.598 23.4606 116.889 21.0534 119.85 21.0534C122.811 21.0534 125.102 23.4627 125.102 26.5079C125.102 29.553 122.811 31.9623 119.85 31.9623C116.889 31.9623 114.598 29.553 114.598 26.5079Z" fill="white"/>
<path d="M52.3331 26.6878C49.4118 19.3794 39.4939 15.8016 30.22 14.3337C28.7646 14.1025 27.2781 13.9167 25.7855 13.7908L25.7442 10.2027C25.7173 7.91311 24.4601 5.79285 22.4637 4.67182L14.9447 0.449879C14.6102 0.262008 14.251 0.136074 13.8732 0.0782672C12.5519 -0.130249 11.2244 0.511816 10.5679 1.67827C9.70082 3.22459 10.2521 5.18795 11.7963 6.05504L19.3153 10.277L19.3545 13.6628C13.6606 13.9683 8.47037 15.525 5.36947 19.2494C3.32354 21.7061 1.87012 25.3748 1.08973 30.3028C-1.46821 46.4473 8.07811 61.3737 22.4079 63.6447C36.7398 65.9136 50.4296 54.6682 52.9855 38.5237C53.7659 33.5957 53.5181 29.6566 52.331 26.6878H52.3331Z" fill="#1F2332"/>
<path d="M22.7237 61.6607C35.9366 63.7541 48.623 53.2333 51.0034 38.2099C51.6558 34.0891 51.5464 30.7033 50.6999 28.1123C48.8563 33.9012 37.7884 34.886 27.2284 33.2137C16.6602 31.5394 6.4305 27.1771 6.48418 21.093C4.87386 23.2958 3.72805 26.4958 3.07567 30.6186C0.695279 45.6421 9.51076 59.5693 22.7237 61.6607Z" fill="#68C860"/>
<path d="M43.4119 20.4175C39.8981 18.6111 35.1022 17.1618 29.9017 16.338C28.5122 16.1171 27.1352 15.9499 25.7912 15.8343C25.7995 16.6085 25.8098 17.4219 25.8181 18.256C27.001 18.3633 28.2377 18.5161 29.5239 18.7184C40.3977 20.4402 46.8617 24.5383 46.5334 26.6028C46.2072 28.6673 38.7935 30.5667 27.9197 28.8449C17.0459 27.1231 10.5819 23.025 10.9102 20.9605C11.1208 19.6309 14.2712 18.3716 19.3871 18.1011C19.3768 17.2671 19.3685 16.4557 19.3602 15.6815C18.0968 15.7435 16.8993 15.8611 15.7928 16.0407C10.2413 16.9409 8.7796 19.0075 8.52979 20.5827C8.27999 22.1579 9.03353 24.5755 14.0338 27.1478C17.5476 28.9543 22.3435 30.4036 27.544 31.2273C32.7424 32.0511 37.753 32.1564 41.6529 31.5226C47.2044 30.6224 48.6661 28.5558 48.9159 26.9806C49.1657 25.4054 48.4121 22.9878 43.4119 20.4155V20.4175Z" fill="white"/>
<path d="M13.4744 46.8925L14.1536 48.0052C16.1211 51.2321 19.767 53.5505 23.9064 54.207C28.0457 54.8636 32.2305 53.7838 35.0981 51.3229L36.087 50.4744L13.4744 46.8925Z" fill="#1F2332"/>
<path d="M11.8047 42.7043C13.0441 42.7043 14.0488 41.6996 14.0488 40.4602C14.0488 39.2208 13.0441 38.2161 11.8047 38.2161C10.5653 38.2161 9.56055 39.2208 9.56055 40.4602C9.56055 41.6996 10.5653 42.7043 11.8047 42.7043Z" fill="#1F2332"/>
<path d="M39.6619 47.1161C40.9013 47.1161 41.906 46.1113 41.906 44.8719C41.906 43.6325 40.9013 42.6278 39.6619 42.6278C38.4225 42.6278 37.4177 43.6325 37.4177 44.8719C37.4177 46.1113 38.4225 47.1161 39.6619 47.1161Z" fill="#1F2332"/>
<path d="M24.0947 53.0165C25.7133 53.2725 27.334 53.2415 28.8658 52.9484C27.5115 52.2299 25.99 51.7055 24.3446 51.4433C22.6991 51.1832 21.0909 51.2121 19.5797 51.4764C20.9443 52.2278 22.4782 52.7584 24.0947 53.0144V53.0165Z" fill="#C7577C"/>
<path d="M23.7354 10.2274C23.7169 8.65213 22.8518 7.19665 21.4789 6.42452L13.96 2.20258C13.3798 1.87639 12.6449 2.08284 12.3187 2.66297C11.9925 3.2431 12.1989 3.97807 12.7791 4.30426L20.298 8.5262C20.9215 8.87716 21.3138 9.53781 21.322 10.2542L21.4975 25.3458C22.2387 25.5688 23.0459 25.7897 23.9171 26.0023L23.7334 10.2274H23.7354Z" fill="#C7577C"/>
</g>
<defs>
<clipPath id="clip0_1_10183">
<rect width="156" height="64" fill="white" transform="translate(0.5)"/>
</clipPath>
</defs>
</svg>
