<svg width="320" height="36" viewBox="0 0 320 36" fill="none" xmlns="http://www.w3.org/2000/svg">
<g clip-path="url(#clip0_1_10065)">
<path d="M162.003 0.524414H175.511C181.02 0.524414 184.42 1.14739 186.814 2.48867C189.302 3.87761 190.98 6.12782 190.98 9.24271C190.98 12.3576 189.111 14.6078 185.711 15.898V15.9934C190.548 17.6206 192.417 20.6878 192.417 24.5176C192.417 28.5414 190.357 31.6529 186.381 33.4265C183.746 34.6248 180.25 35.2002 176.036 35.2002H162V0.527822L162.003 0.524414ZM176.757 14.3661C179.726 14.3661 181.115 13.4572 181.115 11.3499C181.115 10.247 180.73 9.43335 179.678 8.9091C178.96 8.52442 177.857 8.38144 175.797 8.38144H171.869V14.3695H176.757V14.3661ZM176.087 27.3431C178.912 27.3431 180.349 27.1048 181.163 26.6725C182.119 26.1448 182.551 25.2836 182.551 24.0376C182.551 21.6921 180.924 20.6844 177.762 20.6844H171.869V27.3397H176.087V27.3431Z" fill="#68C860"/>
<path d="M196.152 0.524414H221.538V8.85804H206.018V13.2631H219.574V21.1168H206.018V26.8631H222.113V35.1968H196.152V0.524414Z" fill="#68C860"/>
<path d="M226.93 0.524414H236.795V26.8631H252.342V35.1968H226.93V0.524414Z" fill="#68C860"/>
<path d="M256.154 0.524414H266.02V26.8631H281.567V35.1968H256.154V0.524414Z" fill="#68C860"/>
<path d="M300.611 0C311.052 0 319.144 7.85362 319.144 17.8621C319.144 27.8706 311.052 35.7243 300.611 35.7243C290.17 35.7243 282.078 27.8706 282.078 17.8621C282.078 7.85362 290.173 0 300.611 0ZM300.611 26.8664C305.496 26.8664 309.278 22.8902 309.278 17.8621C309.278 12.834 305.496 8.85787 300.611 8.85787C295.726 8.85787 291.944 12.834 291.944 17.8621C291.944 22.8902 295.726 26.8664 300.611 26.8664Z" fill="#68C860"/>
<path d="M58.6654 0C69.1063 0 77.1982 7.85362 77.1982 17.8621C77.1982 27.8706 69.1063 35.7243 58.6654 35.7243C48.2246 35.7243 40.1327 27.8706 40.1327 17.8621C40.1327 7.85362 48.228 0 58.6654 0ZM58.6654 26.8664C63.5506 26.8664 67.3327 22.8902 67.3327 17.8621C67.3327 12.834 63.5506 8.85787 58.6654 8.85787C53.7803 8.85787 49.9982 12.834 49.9982 17.8621C49.9982 22.8902 53.7803 26.8664 58.6654 26.8664Z" fill="white"/>
<path d="M138.931 0C149.372 0 157.464 7.85362 157.464 17.8621C157.464 27.8706 149.372 35.7243 138.931 35.7243C128.49 35.7243 120.398 27.8706 120.398 17.8621C120.398 7.85362 128.494 0 138.931 0ZM138.931 26.8664C143.816 26.8664 147.598 22.8902 147.598 17.8621C147.598 12.834 143.816 8.85787 138.931 8.85787C134.046 8.85787 130.264 12.834 130.264 17.8621C130.264 22.8902 134.046 26.8664 138.931 26.8664Z" fill="white"/>
<path d="M33.9813 27.8706C35.9387 25.0315 37.0655 21.5966 37.0655 17.8621C37.0655 7.85362 28.9736 0 18.5328 0C8.09192 0 0 7.85362 0 17.8621C0 27.8706 8.09532 35.7243 18.5328 35.7243H38.6009V27.8706H33.9847H33.9813ZM9.86213 17.8621C9.86213 12.834 13.6443 8.85787 18.5294 8.85787C23.4145 8.85787 27.1966 12.834 27.1966 17.8621C27.1966 22.8902 23.4145 26.8664 18.5294 26.8664C13.6443 26.8664 9.86213 22.8902 9.86213 17.8621Z" fill="white"/>
<path d="M114.247 27.8706C116.204 25.0315 117.331 21.5966 117.331 17.8621C117.331 7.85362 109.239 0 98.7984 0C88.3575 0 80.2656 7.85362 80.2656 17.8621C80.2656 27.8706 88.3609 35.7243 98.7984 35.7243H118.866V27.8706H114.25H114.247ZM90.1278 17.8621C90.1278 12.834 93.9099 8.85787 98.795 8.85787C103.68 8.85787 107.462 12.834 107.462 17.8621C107.462 22.8902 103.68 26.8664 98.795 26.8664C93.9099 26.8664 90.1278 22.8902 90.1278 17.8621Z" fill="white"/>
</g>
<defs>
<clipPath id="clip0_1_10065">
<rect width="320" height="36" fill="white"/>
</clipPath>
</defs>
</svg>
