<svg width="393" height="128" viewBox="0 0 393 128" fill="none" xmlns="http://www.w3.org/2000/svg">
<path d="M33.024 43.448C33.024 36.6 38.432 31.48 46.016 31.48C48.32 31.48 50.56 31.96 52.416 32.792V39.256C50.72 38.2 48.416 37.336 46.144 37.336C42.24 37.336 39.616 39.864 39.616 43.384C39.616 46.744 42.048 49.496 46.272 49.496C48.544 49.496 50.784 48.696 52.736 47.48V53.976C50.688 54.936 48.224 55.352 46.016 55.352C38.24 55.352 33.024 50.168 33.024 43.448ZM55.4765 55V39.256H61.6845V40.952L61.7485 40.984C62.7725 39.8 64.2125 38.968 65.9405 38.968C66.3565 38.968 66.8045 39.032 67.0925 39.096V44.92C66.5165 44.792 65.8765 44.728 65.3645 44.728C64.0205 44.728 62.8685 45.048 61.8125 46.04V55H55.4765ZM83.913 49.336V54.136C82.249 54.904 79.913 55.352 77.769 55.352C72.201 55.352 68.393 52.28 68.393 47.288C68.393 42.104 72.457 38.904 76.937 38.904C80.809 38.904 84.809 41.304 84.809 46.968C84.809 47.48 84.777 48.12 84.713 48.568H74.825C75.433 50.232 76.937 50.808 78.633 50.808C80.105 50.808 82.025 50.36 83.913 49.336ZM76.905 43.384C75.785 43.384 75.017 44.088 74.729 45.304H79.113C78.825 43.864 77.833 43.384 76.905 43.384ZM80.969 31.736L77.129 36.984H73.033L75.849 31.736H80.969ZM102.069 49.336V54.136C100.405 54.904 98.0693 55.352 95.9253 55.352C90.3573 55.352 86.5493 52.28 86.5493 47.288C86.5493 42.104 90.6133 38.904 95.0933 38.904C98.9653 38.904 102.965 41.304 102.965 46.968C102.965 47.48 102.933 48.12 102.869 48.568H92.9813C93.5893 50.232 95.0933 50.808 96.7893 50.808C98.2613 50.808 100.181 50.36 102.069 49.336ZM95.0613 43.384C93.9413 43.384 93.1733 44.088 92.8853 45.304H97.2693C96.9813 43.864 95.9893 43.384 95.0613 43.384ZM105.602 55V39.256H111.81V40.952L111.874 40.984C112.898 39.8 114.338 38.968 116.066 38.968C116.482 38.968 116.93 39.032 117.218 39.096V44.92C116.642 44.792 116.002 44.728 115.49 44.728C114.146 44.728 112.994 45.048 111.938 46.04V55H105.602ZM128.545 53.912C127.424 52.888 126.913 51.416 126.913 49.048V39.256H133.249V48.216C133.249 49.048 133.409 49.432 133.697 49.72C134.017 50.04 134.433 50.168 134.881 50.168C135.617 50.168 136.417 49.816 136.993 49.272V39.256H143.329V55H137.121V53.72L137.057 53.688C135.905 54.616 134.401 55.352 132.577 55.352C130.849 55.352 129.441 54.712 128.545 53.912ZM146.696 55V39.256H152.904V40.472L152.968 40.504C153.992 39.736 155.592 38.904 157.544 38.904C159.24 38.904 160.68 39.544 161.576 40.408C162.6 41.4 163.112 42.808 163.112 45.112V55H156.776V46.072C156.776 45.368 156.616 44.856 156.328 44.568C156.008 44.248 155.592 44.12 155.112 44.12C154.376 44.12 153.576 44.44 153.032 44.952V55H146.696ZM173.081 47.16C173.081 42.136 177.529 38.904 182.617 38.904C184.217 38.904 185.849 39.224 187.065 39.832V45.304C185.785 44.568 184.441 44.056 183.065 44.056C180.921 44.056 179.481 45.336 179.481 47.128C179.481 48.952 180.953 50.168 183.129 50.168C184.505 50.168 186.169 49.656 187.289 48.856V54.328C186.009 55.032 184.121 55.352 182.457 55.352C176.889 55.352 173.081 51.832 173.081 47.16ZM189.206 47.128C189.206 42.488 193.014 38.904 198.294 38.904C203.574 38.904 207.382 42.488 207.382 47.128C207.382 51.768 203.574 55.352 198.294 55.352C193.014 55.352 189.206 51.768 189.206 47.128ZM195.478 47.128C195.478 48.792 196.661 50.072 198.294 50.072C199.926 50.072 201.11 48.792 201.11 47.128C201.11 45.464 199.926 44.184 198.294 44.184C196.661 44.184 195.478 45.464 195.478 47.128ZM229.692 55V46.072C229.692 45.368 229.532 44.856 229.244 44.568C228.924 44.248 228.508 44.12 228.028 44.12C227.356 44.12 226.652 44.408 226.108 44.856V55H219.772V46.072C219.772 45.368 219.612 44.856 219.324 44.568C219.004 44.248 218.588 44.12 218.108 44.12C217.436 44.12 216.7 44.408 216.188 44.888V55H209.852V39.256H216.06V40.408L216.124 40.44C217.244 39.64 218.716 38.904 220.54 38.904C222.14 38.904 224.028 39.512 225.02 40.92C226.94 39.448 228.668 38.904 230.46 38.904C232.188 38.904 233.628 39.544 234.524 40.408C235.516 41.4 236.028 42.808 236.028 45.112V55H229.692ZM245.625 54.904V62.04H239.289V39.256H245.497V39.928L245.561 39.96C246.585 39.288 247.801 38.904 249.081 38.904C253.017 38.904 256.505 42.04 256.505 46.968C256.505 51.992 252.889 55.352 248.217 55.352C247.129 55.352 246.297 55.16 245.689 54.872L245.625 54.904ZM245.625 50.2C246.009 50.36 246.521 50.456 247.065 50.456C249.209 50.456 250.105 49.016 250.105 47.224C250.105 45.4 249.145 43.96 247.289 43.96C246.585 43.96 246.041 44.184 245.625 44.408V50.2ZM261.601 53.72C260.705 52.824 260.065 51.48 260.065 48.76V44.248H257.729V39.256H260.065V35.32L266.401 34.232V39.256H270.177V44.248H266.401V48.312C266.401 49.56 266.785 50.264 267.969 50.264C268.673 50.264 269.505 50.008 270.177 49.752V54.584C269.281 55 267.745 55.352 266.241 55.352C264.289 55.352 262.625 54.744 261.601 53.72ZM287.257 49.336V54.136C285.593 54.904 283.257 55.352 281.113 55.352C275.545 55.352 271.737 52.28 271.737 47.288C271.737 42.104 275.801 38.904 280.281 38.904C284.153 38.904 288.153 41.304 288.153 46.968C288.153 47.48 288.121 48.12 288.057 48.568H278.169C278.777 50.232 280.281 50.808 281.977 50.808C283.449 50.808 285.369 50.36 287.257 49.336ZM280.249 43.384C279.129 43.384 278.361 44.088 278.073 45.304H282.457C282.169 43.864 281.177 43.384 280.249 43.384Z" fill="white"/>
<g clip-path="url(#clip0_1_10041)">
<path d="M194.003 68.5244H207.511C213.02 68.5244 216.42 69.1474 218.814 70.4887C221.302 71.8776 222.98 74.1278 222.98 77.2427C222.98 80.3576 221.111 82.6078 217.711 83.898V83.9934C222.548 85.6206 224.417 88.6878 224.417 92.5176C224.417 96.5414 222.357 99.6529 218.381 101.427C215.746 102.625 212.25 103.2 208.036 103.2H194V68.5278L194.003 68.5244ZM208.757 82.3661C211.726 82.3661 213.115 81.4572 213.115 79.3499C213.115 78.247 212.73 77.4334 211.678 76.9091C210.96 76.5244 209.857 76.3814 207.797 76.3814H203.869V82.3695H208.757V82.3661ZM208.087 95.3431C210.912 95.3431 212.349 95.1048 213.163 94.6725C214.119 94.1448 214.551 93.2836 214.551 92.0376C214.551 89.6921 212.924 88.6844 209.762 88.6844H203.869V95.3397H208.087V95.3431Z" fill="#68C860"/>
<path d="M228.152 68.5244H253.538V76.858H238.018V81.2631H251.574V89.1168H238.018V94.8631H254.113V103.197H228.152V68.5244Z" fill="#68C860"/>
<path d="M258.93 68.5244H268.795V94.8631H284.342V103.197H258.93V68.5244Z" fill="#68C860"/>
<path d="M288.154 68.5244H298.02V94.8631H313.567V103.197H288.154V68.5244Z" fill="#68C860"/>
<path d="M332.611 68C343.052 68 351.144 75.8536 351.144 85.8621C351.144 95.8706 343.052 103.724 332.611 103.724C322.17 103.724 314.078 95.8706 314.078 85.8621C314.078 75.8536 322.173 68 332.611 68ZM332.611 94.8664C337.496 94.8664 341.278 90.8902 341.278 85.8621C341.278 80.834 337.496 76.8579 332.611 76.8579C327.726 76.8579 323.944 80.834 323.944 85.8621C323.944 90.8902 327.726 94.8664 332.611 94.8664Z" fill="#68C860"/>
<path d="M90.6654 68C101.106 68 109.198 75.8536 109.198 85.8621C109.198 95.8706 101.106 103.724 90.6654 103.724C80.2246 103.724 72.1327 95.8706 72.1327 85.8621C72.1327 75.8536 80.228 68 90.6654 68ZM90.6654 94.8664C95.5506 94.8664 99.3327 90.8902 99.3327 85.8621C99.3327 80.834 95.5506 76.8579 90.6654 76.8579C85.7803 76.8579 81.9982 80.834 81.9982 85.8621C81.9982 90.8902 85.7803 94.8664 90.6654 94.8664Z" fill="white"/>
<path d="M170.931 68C181.372 68 189.464 75.8536 189.464 85.8621C189.464 95.8706 181.372 103.724 170.931 103.724C160.49 103.724 152.398 95.8706 152.398 85.8621C152.398 75.8536 160.494 68 170.931 68ZM170.931 94.8664C175.816 94.8664 179.598 90.8902 179.598 85.8621C179.598 80.834 175.816 76.8579 170.931 76.8579C166.046 76.8579 162.264 80.834 162.264 85.8621C162.264 90.8902 166.046 94.8664 170.931 94.8664Z" fill="white"/>
<path d="M65.9813 95.8706C67.9387 93.0315 69.0655 89.5966 69.0655 85.8621C69.0655 75.8536 60.9736 68 50.5328 68C40.0919 68 32 75.8536 32 85.8621C32 95.8706 40.0953 103.724 50.5328 103.724H70.6009V95.8706H65.9847H65.9813ZM41.8621 85.8621C41.8621 80.834 45.6443 76.8579 50.5294 76.8579C55.4145 76.8579 59.1966 80.834 59.1966 85.8621C59.1966 90.8902 55.4145 94.8664 50.5294 94.8664C45.6443 94.8664 41.8621 90.8902 41.8621 85.8621Z" fill="white"/>
<path d="M146.247 95.8706C148.204 93.0315 149.331 89.5966 149.331 85.8621C149.331 75.8536 141.239 68 130.798 68C120.358 68 112.266 75.8536 112.266 85.8621C112.266 95.8706 120.361 103.724 130.798 103.724H150.866V95.8706H146.25H146.247ZM122.128 85.8621C122.128 80.834 125.91 76.8579 130.795 76.8579C135.68 76.8579 139.462 80.834 139.462 85.8621C139.462 90.8902 135.68 94.8664 130.795 94.8664C125.91 94.8664 122.128 90.8902 122.128 85.8621Z" fill="white"/>
</g>
<defs>
<clipPath id="clip0_1_10041">
<rect width="320" height="36" fill="white" transform="translate(32 68)"/>
</clipPath>
</defs>
</svg>
